<svg width="331" height="393" viewBox="0 0 331 393" fill="none" xmlns="http://www.w3.org/2000/svg">
<rect x="101" y="314" width="230" height="78" fill="#1E1A34"/>
<path d="M190.456 348H185.299V333.455H190.498C191.961 333.455 193.221 333.746 194.277 334.328C195.333 334.906 196.145 335.737 196.713 336.821C197.286 337.905 197.572 339.203 197.572 340.713C197.572 342.228 197.286 343.53 196.713 344.619C196.145 345.708 195.328 346.544 194.262 347.126C193.202 347.709 191.933 348 190.456 348ZM188.375 345.365H190.328C191.237 345.365 192.002 345.204 192.622 344.882C193.247 344.555 193.716 344.051 194.028 343.369C194.345 342.683 194.504 341.797 194.504 340.713C194.504 339.638 194.345 338.76 194.028 338.078C193.716 337.396 193.249 336.894 192.629 336.572C192.009 336.25 191.244 336.089 190.335 336.089H188.375V345.365ZM199.793 348V337.091H202.819V348H199.793ZM201.313 335.685C200.863 335.685 200.478 335.536 200.156 335.237C199.838 334.934 199.68 334.572 199.68 334.151C199.68 333.734 199.838 333.376 200.156 333.078C200.478 332.775 200.863 332.624 201.313 332.624C201.763 332.624 202.147 332.775 202.464 333.078C202.786 333.376 202.947 333.734 202.947 334.151C202.947 334.572 202.786 334.934 202.464 335.237C202.147 335.536 201.763 335.685 201.313 335.685ZM210.157 352.318C209.177 352.318 208.337 352.183 207.636 351.913C206.94 351.648 206.386 351.286 205.974 350.827C205.562 350.367 205.295 349.851 205.172 349.278L207.97 348.902C208.055 349.12 208.19 349.323 208.375 349.513C208.559 349.702 208.803 349.854 209.106 349.967C209.414 350.086 209.788 350.145 210.228 350.145C210.886 350.145 211.429 349.984 211.855 349.662C212.286 349.345 212.501 348.812 212.501 348.064V346.068H212.373C212.241 346.371 212.042 346.658 211.777 346.928C211.511 347.197 211.171 347.418 210.754 347.588C210.337 347.759 209.84 347.844 209.262 347.844C208.443 347.844 207.698 347.654 207.025 347.276C206.358 346.892 205.825 346.307 205.427 345.521C205.034 344.731 204.838 343.732 204.838 342.524C204.838 341.288 205.039 340.256 205.441 339.428C205.844 338.599 206.379 337.979 207.047 337.567C207.719 337.155 208.455 336.949 209.255 336.949C209.866 336.949 210.377 337.053 210.789 337.261C211.201 337.465 211.533 337.721 211.784 338.028C212.039 338.331 212.236 338.63 212.373 338.923H212.487V337.091H215.491V348.107C215.491 349.035 215.264 349.811 214.809 350.436C214.355 351.061 213.725 351.53 212.92 351.842C212.12 352.16 211.199 352.318 210.157 352.318ZM210.221 345.571C210.709 345.571 211.121 345.45 211.457 345.209C211.798 344.963 212.058 344.612 212.238 344.158C212.423 343.698 212.515 343.149 212.515 342.51C212.515 341.871 212.425 341.317 212.245 340.848C212.065 340.375 211.805 340.008 211.464 339.747C211.123 339.487 210.709 339.357 210.221 339.357C209.724 339.357 209.305 339.491 208.964 339.761C208.623 340.027 208.365 340.396 208.19 340.869C208.015 341.343 207.927 341.89 207.927 342.51C207.927 343.14 208.015 343.684 208.19 344.143C208.37 344.598 208.628 344.951 208.964 345.202C209.305 345.448 209.724 345.571 210.221 345.571ZM217.899 348V337.091H220.924V348H217.899ZM219.419 335.685C218.969 335.685 218.583 335.536 218.261 335.237C217.944 334.934 217.785 334.572 217.785 334.151C217.785 333.734 217.944 333.376 218.261 333.078C218.583 332.775 218.969 332.624 219.419 332.624C219.868 332.624 220.252 332.775 220.569 333.078C220.891 333.376 221.052 333.734 221.052 334.151C221.052 334.572 220.891 334.934 220.569 335.237C220.252 335.536 219.868 335.685 219.419 335.685ZM229.151 337.091V339.364H222.581V337.091H229.151ZM224.072 334.477H227.098V344.648C227.098 344.927 227.141 345.145 227.226 345.301C227.311 345.453 227.429 345.559 227.581 345.621C227.737 345.682 227.917 345.713 228.121 345.713C228.263 345.713 228.405 345.701 228.547 345.678C228.689 345.649 228.798 345.628 228.874 345.614L229.349 347.865C229.198 347.912 228.985 347.967 228.71 348.028C228.436 348.095 228.102 348.135 227.709 348.149C226.98 348.178 226.34 348.08 225.791 347.858C225.247 347.635 224.823 347.29 224.52 346.821C224.217 346.352 224.068 345.76 224.072 345.045V334.477ZM234.232 348.206C233.536 348.206 232.916 348.085 232.371 347.844C231.827 347.598 231.396 347.235 231.079 346.757C230.766 346.274 230.61 345.673 230.61 344.953C230.61 344.347 230.721 343.838 230.944 343.426C231.166 343.014 231.469 342.683 231.853 342.432C232.237 342.181 232.672 341.991 233.16 341.864C233.652 341.736 234.168 341.646 234.708 341.594C235.343 341.527 235.854 341.466 236.242 341.409C236.63 341.348 236.912 341.258 237.087 341.139C237.263 341.021 237.35 340.846 237.35 340.614V340.571C237.35 340.121 237.208 339.773 236.924 339.527C236.645 339.281 236.247 339.158 235.731 339.158C235.186 339.158 234.753 339.278 234.431 339.52C234.109 339.757 233.896 340.055 233.792 340.415L230.994 340.188C231.136 339.525 231.415 338.952 231.832 338.469C232.248 337.981 232.786 337.607 233.444 337.347C234.107 337.081 234.874 336.949 235.745 336.949C236.351 336.949 236.931 337.02 237.485 337.162C238.044 337.304 238.539 337.524 238.969 337.822C239.405 338.121 239.748 338.504 239.999 338.973C240.25 339.437 240.376 339.993 240.376 340.642V348H237.506V346.487H237.421C237.246 346.828 237.012 347.129 236.718 347.389C236.424 347.645 236.072 347.846 235.66 347.993C235.248 348.135 234.772 348.206 234.232 348.206ZM235.099 346.118C235.544 346.118 235.937 346.03 236.278 345.855C236.619 345.675 236.886 345.434 237.08 345.131C237.274 344.828 237.371 344.484 237.371 344.101V342.943C237.277 343.005 237.147 343.062 236.981 343.114C236.82 343.161 236.638 343.206 236.434 343.249C236.23 343.286 236.027 343.322 235.823 343.355C235.62 343.384 235.435 343.41 235.269 343.433C234.914 343.485 234.604 343.568 234.339 343.682C234.074 343.795 233.868 343.949 233.721 344.143C233.574 344.333 233.501 344.57 233.501 344.854C233.501 345.266 233.65 345.58 233.948 345.798C234.251 346.011 234.635 346.118 235.099 346.118ZM245.749 333.455V348H242.723V333.455H245.749ZM166.961 376.091V361.091H169.944V362.923H170.079C170.212 362.63 170.404 362.331 170.654 362.028C170.91 361.721 171.242 361.465 171.649 361.261C172.061 361.053 172.572 360.949 173.183 360.949C173.978 360.949 174.712 361.157 175.385 361.574C176.057 361.986 176.594 362.608 176.997 363.442C177.399 364.27 177.6 365.31 177.6 366.56C177.6 367.777 177.404 368.804 177.011 369.642C176.623 370.475 176.092 371.107 175.42 371.538C174.752 371.964 174.004 372.178 173.176 372.178C172.589 372.178 172.089 372.08 171.677 371.886C171.27 371.692 170.936 371.448 170.676 371.155C170.415 370.857 170.217 370.556 170.079 370.253H169.987V376.091H166.961ZM169.923 366.545C169.923 367.194 170.013 367.76 170.193 368.243C170.373 368.726 170.633 369.102 170.974 369.372C171.315 369.637 171.729 369.77 172.217 369.77C172.709 369.77 173.126 369.635 173.467 369.365C173.808 369.09 174.066 368.712 174.241 368.229C174.421 367.741 174.511 367.18 174.511 366.545C174.511 365.916 174.423 365.362 174.248 364.884C174.073 364.405 173.815 364.031 173.474 363.761C173.133 363.491 172.714 363.357 172.217 363.357C171.725 363.357 171.308 363.487 170.967 363.747C170.631 364.008 170.373 364.377 170.193 364.855C170.013 365.333 169.923 365.897 169.923 366.545ZM184.589 372.213C183.467 372.213 182.501 371.986 181.691 371.531C180.886 371.072 180.266 370.423 179.831 369.585C179.395 368.742 179.177 367.746 179.177 366.595C179.177 365.473 179.395 364.488 179.831 363.641C180.266 362.793 180.879 362.133 181.67 361.659C182.466 361.186 183.398 360.949 184.468 360.949C185.188 360.949 185.858 361.065 186.478 361.297C187.103 361.524 187.648 361.867 188.112 362.327C188.581 362.786 188.945 363.364 189.206 364.06C189.466 364.751 189.596 365.561 189.596 366.489V367.32H180.385V365.445H186.748C186.748 365.009 186.654 364.623 186.464 364.287C186.275 363.951 186.012 363.688 185.676 363.499C185.344 363.304 184.958 363.207 184.518 363.207C184.059 363.207 183.652 363.314 183.297 363.527C182.946 363.735 182.672 364.017 182.473 364.372C182.274 364.723 182.172 365.113 182.167 365.544V367.327C182.167 367.866 182.267 368.333 182.466 368.726C182.669 369.119 182.956 369.422 183.325 369.635C183.694 369.848 184.132 369.955 184.639 369.955C184.975 369.955 185.283 369.907 185.562 369.812C185.842 369.718 186.081 369.576 186.279 369.386C186.478 369.197 186.63 368.965 186.734 368.69L189.532 368.875C189.39 369.547 189.099 370.134 188.659 370.636C188.223 371.134 187.66 371.522 186.968 371.801C186.282 372.076 185.489 372.213 184.589 372.213ZM191.571 372V361.091H194.504V362.994H194.618C194.816 362.317 195.15 361.806 195.619 361.46C196.088 361.11 196.627 360.935 197.238 360.935C197.39 360.935 197.553 360.944 197.728 360.963C197.904 360.982 198.057 361.008 198.19 361.041V363.726C198.048 363.683 197.851 363.645 197.6 363.612C197.35 363.579 197.12 363.562 196.912 363.562C196.467 363.562 196.069 363.66 195.718 363.854C195.373 364.043 195.098 364.308 194.895 364.649C194.696 364.99 194.596 365.383 194.596 365.828V372H191.571ZM206.168 361.091V363.364H199.435V361.091H206.168ZM200.976 372V360.303C200.976 359.512 201.13 358.856 201.438 358.335C201.75 357.814 202.176 357.424 202.716 357.163C203.256 356.903 203.869 356.773 204.555 356.773C205.019 356.773 205.443 356.808 205.827 356.879C206.215 356.95 206.504 357.014 206.693 357.071L206.153 359.344C206.035 359.306 205.888 359.27 205.713 359.237C205.543 359.204 205.367 359.188 205.188 359.188C204.742 359.188 204.432 359.292 204.257 359.5C204.082 359.704 203.994 359.99 203.994 360.359V372H200.976ZM212.554 372.213C211.451 372.213 210.497 371.979 209.692 371.51C208.892 371.036 208.274 370.378 207.838 369.536C207.403 368.688 207.185 367.705 207.185 366.588C207.185 365.461 207.403 364.476 207.838 363.634C208.274 362.786 208.892 362.128 209.692 361.659C210.497 361.186 211.451 360.949 212.554 360.949C213.658 360.949 214.609 361.186 215.409 361.659C216.214 362.128 216.835 362.786 217.27 363.634C217.706 364.476 217.924 365.461 217.924 366.588C217.924 367.705 217.706 368.688 217.27 369.536C216.835 370.378 216.214 371.036 215.409 371.51C214.609 371.979 213.658 372.213 212.554 372.213ZM212.569 369.869C213.07 369.869 213.489 369.727 213.826 369.443C214.162 369.154 214.415 368.761 214.586 368.264C214.761 367.767 214.848 367.201 214.848 366.567C214.848 365.932 214.761 365.366 214.586 364.869C214.415 364.372 214.162 363.979 213.826 363.69C213.489 363.402 213.07 363.257 212.569 363.257C212.062 363.257 211.636 363.402 211.29 363.69C210.949 363.979 210.691 364.372 210.516 364.869C210.346 365.366 210.26 365.932 210.26 366.567C210.26 367.201 210.346 367.767 210.516 368.264C210.691 368.761 210.949 369.154 211.29 369.443C211.636 369.727 212.062 369.869 212.569 369.869ZM219.891 372V361.091H222.824V362.994H222.938C223.137 362.317 223.471 361.806 223.939 361.46C224.408 361.11 224.948 360.935 225.559 360.935C225.71 360.935 225.873 360.944 226.049 360.963C226.224 360.982 226.378 361.008 226.51 361.041V363.726C226.368 363.683 226.172 363.645 225.921 363.612C225.67 363.579 225.44 363.562 225.232 363.562C224.787 363.562 224.389 363.66 224.039 363.854C223.693 364.043 223.418 364.308 223.215 364.649C223.016 364.99 222.917 365.383 222.917 365.828V372H219.891ZM228.075 372V361.091H230.958V363.016H231.086C231.313 362.376 231.692 361.872 232.222 361.503C232.753 361.134 233.387 360.949 234.126 360.949C234.874 360.949 235.511 361.136 236.036 361.51C236.562 361.879 236.912 362.381 237.087 363.016H237.201C237.424 362.391 237.826 361.891 238.408 361.517C238.996 361.138 239.689 360.949 240.489 360.949C241.507 360.949 242.334 361.273 242.968 361.922C243.607 362.566 243.927 363.48 243.927 364.663V372H240.908V365.26C240.908 364.654 240.747 364.199 240.425 363.896C240.103 363.593 239.701 363.442 239.218 363.442C238.669 363.442 238.24 363.617 237.933 363.967C237.625 364.313 237.471 364.77 237.471 365.338V372H234.538V365.196C234.538 364.661 234.384 364.235 234.076 363.918C233.773 363.6 233.373 363.442 232.876 363.442C232.54 363.442 232.237 363.527 231.967 363.697C231.701 363.863 231.491 364.098 231.335 364.401C231.178 364.699 231.1 365.049 231.1 365.452V372H228.075ZM251.288 372.213C250.166 372.213 249.2 371.986 248.391 371.531C247.586 371.072 246.965 370.423 246.53 369.585C246.094 368.742 245.876 367.746 245.876 366.595C245.876 365.473 246.094 364.488 246.53 363.641C246.965 362.793 247.579 362.133 248.369 361.659C249.165 361.186 250.098 360.949 251.168 360.949C251.887 360.949 252.557 361.065 253.178 361.297C253.803 361.524 254.347 361.867 254.811 362.327C255.28 362.786 255.644 363.364 255.905 364.06C256.165 364.751 256.295 365.561 256.295 366.489V367.32H247.084V365.445H253.447C253.447 365.009 253.353 364.623 253.163 364.287C252.974 363.951 252.711 363.688 252.375 363.499C252.044 363.304 251.658 363.207 251.217 363.207C250.758 363.207 250.351 363.314 249.996 363.527C249.645 363.735 249.371 364.017 249.172 364.372C248.973 364.723 248.871 365.113 248.866 365.544V367.327C248.866 367.866 248.966 368.333 249.165 368.726C249.368 369.119 249.655 369.422 250.024 369.635C250.393 369.848 250.831 369.955 251.338 369.955C251.674 369.955 251.982 369.907 252.261 369.812C252.541 369.718 252.78 369.576 252.979 369.386C253.178 369.197 253.329 368.965 253.433 368.69L256.232 368.875C256.089 369.547 255.798 370.134 255.358 370.636C254.922 371.134 254.359 371.522 253.668 371.801C252.981 372.076 252.188 372.213 251.288 372.213ZM258.27 372V361.091H261.203V362.994H261.317C261.516 362.317 261.849 361.806 262.318 361.46C262.787 361.11 263.327 360.935 263.938 360.935C264.089 360.935 264.252 360.944 264.428 360.963C264.603 360.982 264.757 361.008 264.889 361.041V363.726C264.747 363.683 264.551 363.645 264.3 363.612C264.049 363.579 263.819 363.562 263.611 363.562C263.166 363.562 262.768 363.66 262.418 363.854C262.072 364.043 261.797 364.308 261.594 364.649C261.395 364.99 261.295 365.383 261.295 365.828V372H258.27Z" fill="#FFB000"/>
<rect x="101" width="230" height="78" fill="#1E1A34"/>
<path d="M190.456 34H185.299V19.4545H190.498C191.961 19.4545 193.221 19.7457 194.277 20.3281C195.333 20.9058 196.145 21.7367 196.713 22.821C197.286 23.9053 197.572 25.2027 197.572 26.7131C197.572 28.2282 197.286 29.5303 196.713 30.6193C196.145 31.7083 195.328 32.544 194.262 33.1264C193.202 33.7088 191.933 34 190.456 34ZM188.375 31.3651H190.328C191.237 31.3651 192.002 31.2041 192.622 30.8821C193.247 30.5554 193.716 30.0511 194.028 29.3693C194.345 28.6828 194.504 27.7973 194.504 26.7131C194.504 25.6383 194.345 24.7599 194.028 24.0781C193.716 23.3963 193.249 22.8944 192.629 22.5724C192.009 22.2505 191.244 22.0895 190.335 22.0895H188.375V31.3651ZM199.793 34V23.0909H202.819V34H199.793ZM201.313 21.6847C200.863 21.6847 200.478 21.5355 200.156 21.2372C199.838 20.9342 199.68 20.572 199.68 20.1506C199.68 19.7339 199.838 19.3764 200.156 19.0781C200.478 18.7751 200.863 18.6236 201.313 18.6236C201.763 18.6236 202.147 18.7751 202.464 19.0781C202.786 19.3764 202.947 19.7339 202.947 20.1506C202.947 20.572 202.786 20.9342 202.464 21.2372C202.147 21.5355 201.763 21.6847 201.313 21.6847ZM210.157 38.3182C209.177 38.3182 208.337 38.1832 207.636 37.9134C206.94 37.6482 206.386 37.286 205.974 36.8267C205.562 36.3674 205.295 35.8513 205.172 35.2784L207.97 34.902C208.055 35.1198 208.19 35.3234 208.375 35.5128C208.559 35.7022 208.803 35.8537 209.106 35.9673C209.414 36.0857 209.788 36.1449 210.228 36.1449C210.886 36.1449 211.429 35.9839 211.855 35.6619C212.286 35.3447 212.501 34.812 212.501 34.0639V32.0682H212.373C212.241 32.3712 212.042 32.6577 211.777 32.9276C211.511 33.1974 211.171 33.4176 210.754 33.5881C210.337 33.7585 209.84 33.8438 209.262 33.8438C208.443 33.8438 207.698 33.6544 207.025 33.2756C206.358 32.892 205.825 32.3073 205.427 31.5213C205.034 30.7306 204.838 29.7315 204.838 28.5241C204.838 27.2884 205.039 26.2562 205.441 25.4276C205.844 24.599 206.379 23.9787 207.047 23.5668C207.719 23.1548 208.455 22.9489 209.255 22.9489C209.866 22.9489 210.377 23.053 210.789 23.2614C211.201 23.465 211.533 23.7206 211.784 24.0284C212.039 24.3314 212.236 24.6297 212.373 24.9233H212.487V23.0909H215.491V34.1065C215.491 35.0346 215.264 35.8111 214.809 36.4361C214.355 37.0611 213.725 37.5298 212.92 37.8423C212.12 38.1596 211.199 38.3182 210.157 38.3182ZM210.221 31.571C210.709 31.571 211.121 31.4503 211.457 31.2088C211.798 30.9626 212.058 30.6122 212.238 30.1577C212.423 29.6984 212.515 29.1491 212.515 28.5099C212.515 27.8707 212.425 27.3168 212.245 26.848C212.065 26.3745 211.805 26.0076 211.464 25.7472C211.123 25.4867 210.709 25.3565 210.221 25.3565C209.724 25.3565 209.305 25.4915 208.964 25.7614C208.623 26.0265 208.365 26.3958 208.19 26.8693C208.015 27.3428 207.927 27.8897 207.927 28.5099C207.927 29.1397 208.015 29.6842 208.19 30.1435C208.37 30.598 208.628 30.9508 208.964 31.2017C209.305 31.4479 209.724 31.571 210.221 31.571ZM217.899 34V23.0909H220.924V34H217.899ZM219.419 21.6847C218.969 21.6847 218.583 21.5355 218.261 21.2372C217.944 20.9342 217.785 20.572 217.785 20.1506C217.785 19.7339 217.944 19.3764 218.261 19.0781C218.583 18.7751 218.969 18.6236 219.419 18.6236C219.868 18.6236 220.252 18.7751 220.569 19.0781C220.891 19.3764 221.052 19.7339 221.052 20.1506C221.052 20.572 220.891 20.9342 220.569 21.2372C220.252 21.5355 219.868 21.6847 219.419 21.6847ZM229.151 23.0909V25.3636H222.581V23.0909H229.151ZM224.072 20.4773H227.098V30.6477C227.098 30.9271 227.141 31.1449 227.226 31.3011C227.311 31.4527 227.429 31.5592 227.581 31.6207C227.737 31.6823 227.917 31.7131 228.121 31.7131C228.263 31.7131 228.405 31.7012 228.547 31.6776C228.689 31.6491 228.798 31.6278 228.874 31.6136L229.349 33.8651C229.198 33.9124 228.985 33.9669 228.71 34.0284C228.436 34.0947 228.102 34.1349 227.709 34.1491C226.98 34.1776 226.34 34.0805 225.791 33.858C225.247 33.6354 224.823 33.2898 224.52 32.821C224.217 32.3523 224.068 31.7604 224.072 31.0455V20.4773ZM234.232 34.206C233.536 34.206 232.916 34.0852 232.371 33.8438C231.827 33.5975 231.396 33.2353 231.079 32.7571C230.766 32.2741 230.61 31.6728 230.61 30.9531C230.61 30.3471 230.721 29.8381 230.944 29.4261C231.166 29.0142 231.469 28.6828 231.853 28.4318C232.237 28.1809 232.672 27.9915 233.16 27.8636C233.652 27.7358 234.168 27.6458 234.708 27.5938C235.343 27.5275 235.854 27.4659 236.242 27.4091C236.63 27.3475 236.912 27.2576 237.087 27.1392C237.263 27.0208 237.35 26.8456 237.35 26.6136V26.571C237.35 26.1212 237.208 25.7732 236.924 25.527C236.645 25.2808 236.247 25.1577 235.731 25.1577C235.186 25.1577 234.753 25.2784 234.431 25.5199C234.109 25.7566 233.896 26.0549 233.792 26.4148L230.994 26.1875C231.136 25.5246 231.415 24.9517 231.832 24.4688C232.248 23.9811 232.786 23.607 233.444 23.3466C234.107 23.0814 234.874 22.9489 235.745 22.9489C236.351 22.9489 236.931 23.0199 237.485 23.1619C238.044 23.304 238.539 23.5241 238.969 23.8224C239.405 24.1207 239.748 24.5043 239.999 24.973C240.25 25.437 240.376 25.9934 240.376 26.642V34H237.506V32.4872H237.421C237.246 32.8281 237.012 33.1288 236.718 33.3892C236.424 33.6449 236.072 33.8461 235.66 33.9929C235.248 34.1349 234.772 34.206 234.232 34.206ZM235.099 32.1179C235.544 32.1179 235.937 32.0303 236.278 31.8551C236.619 31.6752 236.886 31.4337 237.08 31.1307C237.274 30.8277 237.371 30.4844 237.371 30.1009V28.9432C237.277 29.0047 237.147 29.0616 236.981 29.1136C236.82 29.161 236.638 29.206 236.434 29.2486C236.23 29.2865 236.027 29.322 235.823 29.3551C235.62 29.3835 235.435 29.4096 235.269 29.4332C234.914 29.4853 234.604 29.5682 234.339 29.6818C234.074 29.7955 233.868 29.9493 233.721 30.1435C233.574 30.3329 233.501 30.5696 233.501 30.8537C233.501 31.2656 233.65 31.5805 233.948 31.7983C234.251 32.0114 234.635 32.1179 235.099 32.1179ZM245.749 19.4545V34H242.723V19.4545H245.749ZM168.014 51.6932V58H164.989V47.0909H167.872V49.0156H168C168.241 48.3812 168.646 47.8793 169.214 47.5099C169.783 47.1359 170.472 46.9489 171.281 46.9489C172.039 46.9489 172.699 47.1146 173.263 47.446C173.826 47.7775 174.264 48.2509 174.577 48.8665C174.889 49.4773 175.045 50.2064 175.045 51.054V58H172.02V51.5938C172.025 50.9261 171.854 50.4053 171.509 50.0312C171.163 49.6525 170.687 49.4631 170.081 49.4631C169.674 49.4631 169.314 49.5507 169.001 49.7259C168.694 49.901 168.452 50.1567 168.277 50.4929C168.107 50.8243 168.019 51.2244 168.014 51.6932ZM182.402 58.2131C181.279 58.2131 180.314 57.9858 179.504 57.5312C178.699 57.072 178.079 56.4233 177.643 55.5852C177.208 54.7424 176.99 53.7457 176.99 52.5952C176.99 51.473 177.208 50.4882 177.643 49.6406C178.079 48.7931 178.692 48.1326 179.483 47.6591C180.278 47.1856 181.211 46.9489 182.281 46.9489C183.001 46.9489 183.671 47.0649 184.291 47.2969C184.916 47.5241 185.46 47.8674 185.924 48.3267C186.393 48.786 186.758 49.3636 187.018 50.0597C187.279 50.7509 187.409 51.5606 187.409 52.4886V53.3196H178.197V51.4446H184.561C184.561 51.009 184.466 50.6231 184.277 50.2869C184.087 49.9508 183.824 49.688 183.488 49.4986C183.157 49.3045 182.771 49.2074 182.331 49.2074C181.871 49.2074 181.464 49.3139 181.109 49.527C180.759 49.7353 180.484 50.017 180.285 50.3722C180.086 50.7225 179.984 51.1132 179.98 51.544V53.3267C179.98 53.8665 180.079 54.3329 180.278 54.7259C180.482 55.1188 180.768 55.4219 181.137 55.6349C181.507 55.848 181.945 55.9545 182.451 55.9545C182.788 55.9545 183.095 55.9072 183.375 55.8125C183.654 55.7178 183.893 55.5758 184.092 55.3864C184.291 55.197 184.442 54.965 184.547 54.6903L187.345 54.875C187.203 55.5473 186.912 56.1345 186.471 56.6364C186.036 57.1335 185.472 57.5218 184.781 57.8011C184.094 58.0758 183.301 58.2131 182.402 58.2131ZM191.457 58L188.488 47.0909H191.549L193.24 54.4205H193.339L195.1 47.0909H198.105L199.895 54.3778H199.987L201.649 47.0909H204.703L201.741 58H198.538L196.663 51.1392H196.528L194.653 58H191.457ZM210.972 58.2131C209.855 58.2131 208.894 57.9763 208.089 57.5028C207.289 57.0246 206.673 56.3617 206.242 55.5142C205.816 54.6667 205.603 53.6913 205.603 52.5881C205.603 51.4706 205.818 50.4905 206.249 49.6477C206.685 48.8002 207.303 48.1397 208.103 47.6662C208.903 47.188 209.855 46.9489 210.958 46.9489C211.91 46.9489 212.743 47.1217 213.458 47.4673C214.173 47.813 214.739 48.2983 215.156 48.9233C215.572 49.5483 215.802 50.2822 215.844 51.125H212.989C212.909 50.5805 212.696 50.1425 212.35 49.8111C212.009 49.4749 211.562 49.3068 211.008 49.3068C210.539 49.3068 210.129 49.4347 209.779 49.6903C209.433 49.9413 209.164 50.3082 208.969 50.7912C208.775 51.2741 208.678 51.8589 208.678 52.5455C208.678 53.2415 208.773 53.8333 208.962 54.321C209.156 54.8087 209.429 55.1804 209.779 55.4361C210.129 55.6918 210.539 55.8196 211.008 55.8196C211.353 55.8196 211.664 55.7486 211.938 55.6065C212.218 55.4645 212.447 55.2585 212.627 54.9886C212.812 54.714 212.933 54.3849 212.989 54.0014H215.844C215.797 54.8348 215.57 55.5687 215.163 56.2031C214.76 56.8329 214.204 57.3253 213.494 57.6804C212.783 58.0355 211.943 58.2131 210.972 58.2131ZM222.711 58.2131C221.607 58.2131 220.653 57.9787 219.848 57.5099C219.048 57.0365 218.43 56.3783 217.995 55.5355C217.559 54.688 217.341 53.7055 217.341 52.5881C217.341 51.4612 217.559 50.4763 217.995 49.6335C218.43 48.786 219.048 48.1278 219.848 47.6591C220.653 47.1856 221.607 46.9489 222.711 46.9489C223.814 46.9489 224.766 47.1856 225.566 47.6591C226.371 48.1278 226.991 48.786 227.426 49.6335C227.862 50.4763 228.08 51.4612 228.08 52.5881C228.08 53.7055 227.862 54.688 227.426 55.5355C226.991 56.3783 226.371 57.0365 225.566 57.5099C224.766 57.9787 223.814 58.2131 222.711 58.2131ZM222.725 55.8693C223.227 55.8693 223.646 55.7273 223.982 55.4432C224.318 55.1544 224.571 54.7614 224.742 54.2642C224.917 53.767 225.005 53.2012 225.005 52.5668C225.005 51.9323 224.917 51.3665 224.742 50.8693C224.571 50.3722 224.318 49.9792 223.982 49.6903C223.646 49.4015 223.227 49.2571 222.725 49.2571C222.218 49.2571 221.792 49.4015 221.446 49.6903C221.105 49.9792 220.847 50.3722 220.672 50.8693C220.502 51.3665 220.417 51.9323 220.417 52.5668C220.417 53.2012 220.502 53.767 220.672 54.2642C220.847 54.7614 221.105 55.1544 221.446 55.4432C221.792 55.7273 222.218 55.8693 222.725 55.8693ZM230.047 58V47.0909H232.931V49.0156H233.059C233.286 48.3764 233.665 47.8722 234.195 47.5028C234.725 47.1335 235.36 46.9489 236.098 46.9489C236.846 46.9489 237.483 47.1359 238.009 47.5099C238.534 47.8793 238.885 48.3812 239.06 49.0156H239.174C239.396 48.3906 239.799 47.8911 240.381 47.517C240.968 47.1383 241.662 46.9489 242.462 46.9489C243.48 46.9489 244.306 47.2732 244.941 47.9219C245.58 48.5658 245.9 49.4796 245.9 50.6634V58H242.881V51.2599C242.881 50.6539 242.72 50.1993 242.398 49.8963C242.076 49.5933 241.674 49.4418 241.191 49.4418C240.641 49.4418 240.213 49.617 239.905 49.9673C239.597 50.313 239.444 50.7699 239.444 51.3381V58H236.51V51.196C236.51 50.661 236.356 50.2348 236.049 49.9176C235.746 49.6004 235.346 49.4418 234.848 49.4418C234.512 49.4418 234.209 49.527 233.939 49.6974C233.674 49.8632 233.463 50.0975 233.307 50.4006C233.151 50.6989 233.073 51.0492 233.073 51.4517V58H230.047ZM253.261 58.2131C252.139 58.2131 251.173 57.9858 250.363 57.5312C249.558 57.072 248.938 56.4233 248.502 55.5852C248.067 54.7424 247.849 53.7457 247.849 52.5952C247.849 51.473 248.067 50.4882 248.502 49.6406C248.938 48.7931 249.551 48.1326 250.342 47.6591C251.137 47.1856 252.07 46.9489 253.14 46.9489C253.86 46.9489 254.53 47.0649 255.15 47.2969C255.775 47.5241 256.32 47.8674 256.784 48.3267C257.252 48.786 257.617 49.3636 257.877 50.0597C258.138 50.7509 258.268 51.5606 258.268 52.4886V53.3196H249.056V51.4446H255.42C255.42 51.009 255.325 50.6231 255.136 50.2869C254.947 49.9508 254.684 49.688 254.348 49.4986C254.016 49.3045 253.63 49.2074 253.19 49.2074C252.731 49.2074 252.324 49.3139 251.968 49.527C251.618 49.7353 251.343 50.017 251.145 50.3722C250.946 50.7225 250.844 51.1132 250.839 51.544V53.3267C250.839 53.8665 250.939 54.3329 251.137 54.7259C251.341 55.1188 251.627 55.4219 251.997 55.6349C252.366 55.848 252.804 55.9545 253.311 55.9545C253.647 55.9545 253.955 55.9072 254.234 55.8125C254.513 55.7178 254.752 55.5758 254.951 55.3864C255.15 55.197 255.302 54.965 255.406 54.6903L258.204 54.875C258.062 55.5473 257.771 56.1345 257.331 56.6364C256.895 57.1335 256.332 57.5218 255.64 57.8011C254.954 58.0758 254.161 58.2131 253.261 58.2131ZM260.243 58V47.0909H263.176V48.9943H263.289C263.488 48.3172 263.822 47.8059 264.291 47.4602C264.76 47.1098 265.299 46.9347 265.91 46.9347C266.062 46.9347 266.225 46.9441 266.4 46.9631C266.575 46.982 266.729 47.008 266.862 47.0412V49.7259C266.72 49.6832 266.523 49.6454 266.272 49.6122C266.021 49.5791 265.792 49.5625 265.583 49.5625C265.138 49.5625 264.741 49.6596 264.39 49.8537C264.045 50.0431 263.77 50.3082 263.566 50.6491C263.368 50.9901 263.268 51.383 263.268 51.8281V58H260.243Z" fill="#FFB000"/>
<rect x="101" y="157" width="230" height="78" fill="#1E1A34"/>
<path d="M157.811 202H152.655V187.455H157.854C159.317 187.455 160.576 187.746 161.632 188.328C162.688 188.906 163.5 189.737 164.068 190.821C164.641 191.905 164.928 193.203 164.928 194.713C164.928 196.228 164.641 197.53 164.068 198.619C163.5 199.708 162.683 200.544 161.618 201.126C160.557 201.709 159.288 202 157.811 202ZM155.73 199.365H157.683C158.592 199.365 159.357 199.204 159.977 198.882C160.602 198.555 161.071 198.051 161.384 197.369C161.701 196.683 161.859 195.797 161.859 194.713C161.859 193.638 161.701 192.76 161.384 192.078C161.071 191.396 160.605 190.894 159.984 190.572C159.364 190.25 158.599 190.089 157.69 190.089H155.73V199.365ZM167.149 202V191.091H170.174V202H167.149ZM168.669 189.685C168.219 189.685 167.833 189.536 167.511 189.237C167.194 188.934 167.035 188.572 167.035 188.151C167.035 187.734 167.194 187.376 167.511 187.078C167.833 186.775 168.219 186.624 168.669 186.624C169.118 186.624 169.502 186.775 169.819 187.078C170.141 187.376 170.302 187.734 170.302 188.151C170.302 188.572 170.141 188.934 169.819 189.237C169.502 189.536 169.118 189.685 168.669 189.685ZM177.513 206.318C176.533 206.318 175.692 206.183 174.991 205.913C174.295 205.648 173.741 205.286 173.33 204.827C172.918 204.367 172.65 203.851 172.527 203.278L175.325 202.902C175.411 203.12 175.545 203.323 175.73 203.513C175.915 203.702 176.159 203.854 176.462 203.967C176.769 204.086 177.143 204.145 177.584 204.145C178.242 204.145 178.784 203.984 179.21 203.662C179.641 203.345 179.857 202.812 179.857 202.064V200.068H179.729C179.596 200.371 179.397 200.658 179.132 200.928C178.867 201.197 178.526 201.418 178.109 201.588C177.693 201.759 177.196 201.844 176.618 201.844C175.799 201.844 175.053 201.654 174.381 201.276C173.713 200.892 173.18 200.307 172.783 199.521C172.39 198.731 172.193 197.732 172.193 196.524C172.193 195.288 172.394 194.256 172.797 193.428C173.199 192.599 173.734 191.979 174.402 191.567C175.074 191.155 175.811 190.949 176.611 190.949C177.222 190.949 177.733 191.053 178.145 191.261C178.557 191.465 178.888 191.721 179.139 192.028C179.395 192.331 179.591 192.63 179.729 192.923H179.842V191.091H182.847V202.107C182.847 203.035 182.619 203.811 182.165 204.436C181.71 205.061 181.08 205.53 180.276 205.842C179.475 206.16 178.554 206.318 177.513 206.318ZM177.577 199.571C178.064 199.571 178.476 199.45 178.812 199.209C179.153 198.963 179.414 198.612 179.594 198.158C179.778 197.698 179.871 197.149 179.871 196.51C179.871 195.871 179.781 195.317 179.601 194.848C179.421 194.375 179.161 194.008 178.82 193.747C178.479 193.487 178.064 193.357 177.577 193.357C177.08 193.357 176.661 193.491 176.32 193.761C175.979 194.027 175.721 194.396 175.545 194.869C175.37 195.343 175.283 195.89 175.283 196.51C175.283 197.14 175.37 197.684 175.545 198.143C175.725 198.598 175.983 198.951 176.32 199.202C176.661 199.448 177.08 199.571 177.577 199.571ZM185.254 202V191.091H188.28V202H185.254ZM186.774 189.685C186.324 189.685 185.938 189.536 185.616 189.237C185.299 188.934 185.141 188.572 185.141 188.151C185.141 187.734 185.299 187.376 185.616 187.078C185.938 186.775 186.324 186.624 186.774 186.624C187.224 186.624 187.607 186.775 187.925 187.078C188.247 187.376 188.408 187.734 188.408 188.151C188.408 188.572 188.247 188.934 187.925 189.237C187.607 189.536 187.224 189.685 186.774 189.685ZM196.506 191.091V193.364H189.936V191.091H196.506ZM191.428 188.477H194.453V198.648C194.453 198.927 194.496 199.145 194.581 199.301C194.667 199.453 194.785 199.559 194.936 199.621C195.093 199.682 195.273 199.713 195.476 199.713C195.618 199.713 195.76 199.701 195.902 199.678C196.044 199.649 196.153 199.628 196.229 199.614L196.705 201.865C196.553 201.912 196.34 201.967 196.066 202.028C195.791 202.095 195.457 202.135 195.064 202.149C194.335 202.178 193.696 202.08 193.147 201.858C192.602 201.635 192.178 201.29 191.875 200.821C191.572 200.352 191.423 199.76 191.428 199.045V188.477ZM201.588 202.206C200.892 202.206 200.271 202.085 199.727 201.844C199.182 201.598 198.752 201.235 198.434 200.757C198.122 200.274 197.966 199.673 197.966 198.953C197.966 198.347 198.077 197.838 198.299 197.426C198.522 197.014 198.825 196.683 199.208 196.432C199.592 196.181 200.028 195.991 200.515 195.864C201.008 195.736 201.524 195.646 202.064 195.594C202.698 195.527 203.209 195.466 203.598 195.409C203.986 195.348 204.268 195.258 204.443 195.139C204.618 195.021 204.706 194.846 204.706 194.614V194.571C204.706 194.121 204.564 193.773 204.279 193.527C204 193.281 203.602 193.158 203.086 193.158C202.542 193.158 202.109 193.278 201.787 193.52C201.465 193.757 201.252 194.055 201.147 194.415L198.349 194.188C198.491 193.525 198.77 192.952 199.187 192.469C199.604 191.981 200.141 191.607 200.799 191.347C201.462 191.081 202.229 190.949 203.1 190.949C203.707 190.949 204.287 191.02 204.841 191.162C205.399 191.304 205.894 191.524 206.325 191.822C206.761 192.121 207.104 192.504 207.355 192.973C207.606 193.437 207.731 193.993 207.731 194.642V202H204.862V200.487H204.777C204.601 200.828 204.367 201.129 204.074 201.389C203.78 201.645 203.427 201.846 203.015 201.993C202.603 202.135 202.127 202.206 201.588 202.206ZM202.454 200.118C202.899 200.118 203.292 200.03 203.633 199.855C203.974 199.675 204.242 199.434 204.436 199.131C204.63 198.828 204.727 198.484 204.727 198.101V196.943C204.632 197.005 204.502 197.062 204.336 197.114C204.175 197.161 203.993 197.206 203.789 197.249C203.586 197.286 203.382 197.322 203.179 197.355C202.975 197.384 202.79 197.41 202.625 197.433C202.27 197.485 201.959 197.568 201.694 197.682C201.429 197.795 201.223 197.949 201.076 198.143C200.93 198.333 200.856 198.57 200.856 198.854C200.856 199.266 201.005 199.58 201.304 199.798C201.607 200.011 201.99 200.118 202.454 200.118ZM213.104 187.455V202H210.078V187.455H213.104ZM220.157 202V191.091H223.04V193.016H223.168C223.395 192.376 223.774 191.872 224.304 191.503C224.835 191.134 225.469 190.949 226.208 190.949C226.956 190.949 227.593 191.136 228.118 191.51C228.644 191.879 228.994 192.381 229.169 193.016H229.283C229.506 192.391 229.908 191.891 230.49 191.517C231.078 191.138 231.771 190.949 232.571 190.949C233.589 190.949 234.416 191.273 235.05 191.922C235.689 192.566 236.009 193.48 236.009 194.663V202H232.99V195.26C232.99 194.654 232.829 194.199 232.507 193.896C232.185 193.593 231.783 193.442 231.3 193.442C230.751 193.442 230.322 193.617 230.015 193.967C229.707 194.313 229.553 194.77 229.553 195.338V202H226.62V195.196C226.62 194.661 226.466 194.235 226.158 193.918C225.855 193.6 225.455 193.442 224.958 193.442C224.622 193.442 224.319 193.527 224.049 193.697C223.783 193.863 223.573 194.098 223.417 194.401C223.26 194.699 223.182 195.049 223.182 195.452V202H220.157ZM243.328 202.213C242.225 202.213 241.27 201.979 240.466 201.51C239.665 201.036 239.047 200.378 238.612 199.536C238.176 198.688 237.958 197.705 237.958 196.588C237.958 195.461 238.176 194.476 238.612 193.634C239.047 192.786 239.665 192.128 240.466 191.659C241.27 191.186 242.225 190.949 243.328 190.949C244.431 190.949 245.383 191.186 246.183 191.659C246.988 192.128 247.608 192.786 248.044 193.634C248.479 194.476 248.697 195.461 248.697 196.588C248.697 197.705 248.479 198.688 248.044 199.536C247.608 200.378 246.988 201.036 246.183 201.51C245.383 201.979 244.431 202.213 243.328 202.213ZM243.342 199.869C243.844 199.869 244.263 199.727 244.599 199.443C244.935 199.154 245.189 198.761 245.359 198.264C245.534 197.767 245.622 197.201 245.622 196.567C245.622 195.932 245.534 195.366 245.359 194.869C245.189 194.372 244.935 193.979 244.599 193.69C244.263 193.402 243.844 193.257 243.342 193.257C242.835 193.257 242.409 193.402 242.064 193.69C241.723 193.979 241.465 194.372 241.289 194.869C241.119 195.366 241.034 195.932 241.034 196.567C241.034 197.201 241.119 197.767 241.289 198.264C241.465 198.761 241.723 199.154 242.064 199.443C242.409 199.727 242.835 199.869 243.342 199.869ZM260.483 191.091L256.669 202H253.26L249.446 191.091H252.642L254.908 198.896H255.022L257.28 191.091H260.483ZM266.652 202.213C265.529 202.213 264.564 201.986 263.754 201.531C262.949 201.072 262.329 200.423 261.893 199.585C261.458 198.742 261.24 197.746 261.24 196.595C261.24 195.473 261.458 194.488 261.893 193.641C262.329 192.793 262.942 192.133 263.733 191.659C264.528 191.186 265.461 190.949 266.531 190.949C267.251 190.949 267.921 191.065 268.541 191.297C269.166 191.524 269.71 191.867 270.174 192.327C270.643 192.786 271.008 193.364 271.268 194.06C271.529 194.751 271.659 195.561 271.659 196.489V197.32H262.447V195.445H268.811C268.811 195.009 268.716 194.623 268.527 194.287C268.337 193.951 268.074 193.688 267.738 193.499C267.407 193.304 267.021 193.207 266.581 193.207C266.121 193.207 265.714 193.314 265.359 193.527C265.009 193.735 264.734 194.017 264.535 194.372C264.336 194.723 264.234 195.113 264.23 195.544V197.327C264.23 197.866 264.329 198.333 264.528 198.726C264.732 199.119 265.018 199.422 265.387 199.635C265.757 199.848 266.195 199.955 266.701 199.955C267.038 199.955 267.345 199.907 267.625 199.812C267.904 199.718 268.143 199.576 268.342 199.386C268.541 199.197 268.692 198.965 268.797 198.69L271.595 198.875C271.453 199.547 271.162 200.134 270.721 200.636C270.286 201.134 269.722 201.522 269.031 201.801C268.344 202.076 267.551 202.213 266.652 202.213ZM273.633 202V191.091H276.566V192.994H276.68C276.879 192.317 277.213 191.806 277.681 191.46C278.15 191.11 278.69 190.935 279.301 190.935C279.452 190.935 279.616 190.944 279.791 190.963C279.966 190.982 280.12 191.008 280.252 191.041V193.726C280.11 193.683 279.914 193.645 279.663 193.612C279.412 193.579 279.182 193.562 278.974 193.562C278.529 193.562 278.131 193.66 277.781 193.854C277.435 194.043 277.161 194.308 276.957 194.649C276.758 194.99 276.659 195.383 276.659 195.828V202H273.633Z" fill="#FFB000"/>
<rect x="238.269" y="93" width="26.7273" height="46.1791" transform="rotate(90 238.269 93)" fill="#FFB000"/>
<path d="M214.5 142L175.096 115.273L253.904 115.273L214.5 142Z" fill="#FFB000"/>
<rect x="238.269" y="250" width="26.7273" height="46.1791" transform="rotate(90 238.269 250)" fill="#FFB000"/>
<path d="M214.5 299L175.096 272.273L253.904 272.273L214.5 299Z" fill="#FFB000"/>
<path d="M45.0312 323.233L45.0312 387.767H10.0003C4.47749 387.767 0.000324249 383.29 0.000324249 377.767L0.000324249 333.233C0.000324249 327.71 4.47748 323.233 10.0003 323.233H45.0312Z" fill="#FFB000"/>
<path d="M84 355.5L43.0825 387.976L43.0825 323.024L84 355.5Z" fill="#FFB000"/>
</svg>
