<svg width="332" height="392" viewBox="0 0 332 392" fill="none" xmlns="http://www.w3.org/2000/svg">
<rect x="102" y="314" width="230" height="78" fill="#1E1A34"/>
<path d="M191.456 348H186.299V333.455H191.498C192.961 333.455 194.221 333.746 195.277 334.328C196.333 334.906 197.145 335.737 197.713 336.821C198.286 337.905 198.572 339.203 198.572 340.713C198.572 342.228 198.286 343.53 197.713 344.619C197.145 345.708 196.328 346.544 195.262 347.126C194.202 347.709 192.933 348 191.456 348ZM189.375 345.365H191.328C192.237 345.365 193.002 345.204 193.622 344.882C194.247 344.555 194.716 344.051 195.028 343.369C195.345 342.683 195.504 341.797 195.504 340.713C195.504 339.638 195.345 338.76 195.028 338.078C194.716 337.396 194.249 336.894 193.629 336.572C193.009 336.25 192.244 336.089 191.335 336.089H189.375V345.365ZM200.793 348V337.091H203.819V348H200.793ZM202.313 335.685C201.863 335.685 201.478 335.536 201.156 335.237C200.838 334.934 200.68 334.572 200.68 334.151C200.68 333.734 200.838 333.376 201.156 333.078C201.478 332.775 201.863 332.624 202.313 332.624C202.763 332.624 203.147 332.775 203.464 333.078C203.786 333.376 203.947 333.734 203.947 334.151C203.947 334.572 203.786 334.934 203.464 335.237C203.147 335.536 202.763 335.685 202.313 335.685ZM211.157 352.318C210.177 352.318 209.337 352.183 208.636 351.913C207.94 351.648 207.386 351.286 206.974 350.827C206.562 350.367 206.295 349.851 206.172 349.278L208.97 348.902C209.055 349.12 209.19 349.323 209.375 349.513C209.559 349.702 209.803 349.854 210.106 349.967C210.414 350.086 210.788 350.145 211.228 350.145C211.886 350.145 212.429 349.984 212.855 349.662C213.286 349.345 213.501 348.812 213.501 348.064V346.068H213.373C213.241 346.371 213.042 346.658 212.777 346.928C212.511 347.197 212.171 347.418 211.754 347.588C211.337 347.759 210.84 347.844 210.262 347.844C209.443 347.844 208.698 347.654 208.025 347.276C207.358 346.892 206.825 346.307 206.427 345.521C206.034 344.731 205.838 343.732 205.838 342.524C205.838 341.288 206.039 340.256 206.441 339.428C206.844 338.599 207.379 337.979 208.047 337.567C208.719 337.155 209.455 336.949 210.255 336.949C210.866 336.949 211.377 337.053 211.789 337.261C212.201 337.465 212.533 337.721 212.784 338.028C213.039 338.331 213.236 338.63 213.373 338.923H213.487V337.091H216.491V348.107C216.491 349.035 216.264 349.811 215.809 350.436C215.355 351.061 214.725 351.53 213.92 351.842C213.12 352.16 212.199 352.318 211.157 352.318ZM211.221 345.571C211.709 345.571 212.121 345.45 212.457 345.209C212.798 344.963 213.058 344.612 213.238 344.158C213.423 343.698 213.515 343.149 213.515 342.51C213.515 341.871 213.425 341.317 213.245 340.848C213.065 340.375 212.805 340.008 212.464 339.747C212.123 339.487 211.709 339.357 211.221 339.357C210.724 339.357 210.305 339.491 209.964 339.761C209.623 340.027 209.365 340.396 209.19 340.869C209.015 341.343 208.927 341.89 208.927 342.51C208.927 343.14 209.015 343.684 209.19 344.143C209.37 344.598 209.628 344.951 209.964 345.202C210.305 345.448 210.724 345.571 211.221 345.571ZM218.899 348V337.091H221.924V348H218.899ZM220.419 335.685C219.969 335.685 219.583 335.536 219.261 335.237C218.944 334.934 218.785 334.572 218.785 334.151C218.785 333.734 218.944 333.376 219.261 333.078C219.583 332.775 219.969 332.624 220.419 332.624C220.868 332.624 221.252 332.775 221.569 333.078C221.891 333.376 222.052 333.734 222.052 334.151C222.052 334.572 221.891 334.934 221.569 335.237C221.252 335.536 220.868 335.685 220.419 335.685ZM230.151 337.091V339.364H223.581V337.091H230.151ZM225.072 334.477H228.098V344.648C228.098 344.927 228.141 345.145 228.226 345.301C228.311 345.453 228.429 345.559 228.581 345.621C228.737 345.682 228.917 345.713 229.121 345.713C229.263 345.713 229.405 345.701 229.547 345.678C229.689 345.649 229.798 345.628 229.874 345.614L230.349 347.865C230.198 347.912 229.985 347.967 229.71 348.028C229.436 348.095 229.102 348.135 228.709 348.149C227.98 348.178 227.34 348.08 226.791 347.858C226.247 347.635 225.823 347.29 225.52 346.821C225.217 346.352 225.068 345.76 225.072 345.045V334.477ZM235.232 348.206C234.536 348.206 233.916 348.085 233.371 347.844C232.827 347.598 232.396 347.235 232.079 346.757C231.766 346.274 231.61 345.673 231.61 344.953C231.61 344.347 231.721 343.838 231.944 343.426C232.166 343.014 232.469 342.683 232.853 342.432C233.237 342.181 233.672 341.991 234.16 341.864C234.652 341.736 235.168 341.646 235.708 341.594C236.343 341.527 236.854 341.466 237.242 341.409C237.63 341.348 237.912 341.258 238.087 341.139C238.263 341.021 238.35 340.846 238.35 340.614V340.571C238.35 340.121 238.208 339.773 237.924 339.527C237.645 339.281 237.247 339.158 236.731 339.158C236.186 339.158 235.753 339.278 235.431 339.52C235.109 339.757 234.896 340.055 234.792 340.415L231.994 340.188C232.136 339.525 232.415 338.952 232.832 338.469C233.248 337.981 233.786 337.607 234.444 337.347C235.107 337.081 235.874 336.949 236.745 336.949C237.351 336.949 237.931 337.02 238.485 337.162C239.044 337.304 239.539 337.524 239.969 337.822C240.405 338.121 240.748 338.504 240.999 338.973C241.25 339.437 241.376 339.993 241.376 340.642V348H238.506V346.487H238.421C238.246 346.828 238.012 347.129 237.718 347.389C237.424 347.645 237.072 347.846 236.66 347.993C236.248 348.135 235.772 348.206 235.232 348.206ZM236.099 346.118C236.544 346.118 236.937 346.03 237.278 345.855C237.619 345.675 237.886 345.434 238.08 345.131C238.274 344.828 238.371 344.484 238.371 344.101V342.943C238.277 343.005 238.147 343.062 237.981 343.114C237.82 343.161 237.638 343.206 237.434 343.249C237.23 343.286 237.027 343.322 236.823 343.355C236.62 343.384 236.435 343.41 236.269 343.433C235.914 343.485 235.604 343.568 235.339 343.682C235.074 343.795 234.868 343.949 234.721 344.143C234.574 344.333 234.501 344.57 234.501 344.854C234.501 345.266 234.65 345.58 234.948 345.798C235.251 346.011 235.635 346.118 236.099 346.118ZM246.749 333.455V348H243.723V333.455H246.749ZM167.961 376.091V361.091H170.944V362.923H171.079C171.212 362.63 171.404 362.331 171.654 362.028C171.91 361.721 172.242 361.465 172.649 361.261C173.061 361.053 173.572 360.949 174.183 360.949C174.978 360.949 175.712 361.157 176.385 361.574C177.057 361.986 177.594 362.608 177.997 363.442C178.399 364.27 178.6 365.31 178.6 366.56C178.6 367.777 178.404 368.804 178.011 369.642C177.623 370.475 177.092 371.107 176.42 371.538C175.752 371.964 175.004 372.178 174.176 372.178C173.589 372.178 173.089 372.08 172.677 371.886C172.27 371.692 171.936 371.448 171.676 371.155C171.415 370.857 171.217 370.556 171.079 370.253H170.987V376.091H167.961ZM170.923 366.545C170.923 367.194 171.013 367.76 171.193 368.243C171.373 368.726 171.633 369.102 171.974 369.372C172.315 369.637 172.729 369.77 173.217 369.77C173.709 369.77 174.126 369.635 174.467 369.365C174.808 369.09 175.066 368.712 175.241 368.229C175.421 367.741 175.511 367.18 175.511 366.545C175.511 365.916 175.423 365.362 175.248 364.884C175.073 364.405 174.815 364.031 174.474 363.761C174.133 363.491 173.714 363.357 173.217 363.357C172.725 363.357 172.308 363.487 171.967 363.747C171.631 364.008 171.373 364.377 171.193 364.855C171.013 365.333 170.923 365.897 170.923 366.545ZM185.589 372.213C184.467 372.213 183.501 371.986 182.691 371.531C181.886 371.072 181.266 370.423 180.831 369.585C180.395 368.742 180.177 367.746 180.177 366.595C180.177 365.473 180.395 364.488 180.831 363.641C181.266 362.793 181.879 362.133 182.67 361.659C183.466 361.186 184.398 360.949 185.468 360.949C186.188 360.949 186.858 361.065 187.478 361.297C188.103 361.524 188.648 361.867 189.112 362.327C189.581 362.786 189.945 363.364 190.206 364.06C190.466 364.751 190.596 365.561 190.596 366.489V367.32H181.385V365.445H187.748C187.748 365.009 187.654 364.623 187.464 364.287C187.275 363.951 187.012 363.688 186.676 363.499C186.344 363.304 185.958 363.207 185.518 363.207C185.059 363.207 184.652 363.314 184.297 363.527C183.946 363.735 183.672 364.017 183.473 364.372C183.274 364.723 183.172 365.113 183.167 365.544V367.327C183.167 367.866 183.267 368.333 183.466 368.726C183.669 369.119 183.956 369.422 184.325 369.635C184.694 369.848 185.132 369.955 185.639 369.955C185.975 369.955 186.283 369.907 186.562 369.812C186.842 369.718 187.081 369.576 187.279 369.386C187.478 369.197 187.63 368.965 187.734 368.69L190.532 368.875C190.39 369.547 190.099 370.134 189.659 370.636C189.223 371.134 188.66 371.522 187.968 371.801C187.282 372.076 186.489 372.213 185.589 372.213ZM192.571 372V361.091H195.504V362.994H195.618C195.816 362.317 196.15 361.806 196.619 361.46C197.088 361.11 197.627 360.935 198.238 360.935C198.39 360.935 198.553 360.944 198.728 360.963C198.904 360.982 199.057 361.008 199.19 361.041V363.726C199.048 363.683 198.851 363.645 198.6 363.612C198.35 363.579 198.12 363.562 197.912 363.562C197.467 363.562 197.069 363.66 196.718 363.854C196.373 364.043 196.098 364.308 195.895 364.649C195.696 364.99 195.596 365.383 195.596 365.828V372H192.571ZM207.168 361.091V363.364H200.435V361.091H207.168ZM201.976 372V360.303C201.976 359.512 202.13 358.856 202.438 358.335C202.75 357.814 203.176 357.424 203.716 357.163C204.256 356.903 204.869 356.773 205.555 356.773C206.019 356.773 206.443 356.808 206.827 356.879C207.215 356.95 207.504 357.014 207.693 357.071L207.153 359.344C207.035 359.306 206.888 359.27 206.713 359.237C206.543 359.204 206.367 359.188 206.188 359.188C205.742 359.188 205.432 359.292 205.257 359.5C205.082 359.704 204.994 359.99 204.994 360.359V372H201.976ZM213.554 372.213C212.451 372.213 211.497 371.979 210.692 371.51C209.892 371.036 209.274 370.378 208.838 369.536C208.403 368.688 208.185 367.705 208.185 366.588C208.185 365.461 208.403 364.476 208.838 363.634C209.274 362.786 209.892 362.128 210.692 361.659C211.497 361.186 212.451 360.949 213.554 360.949C214.658 360.949 215.609 361.186 216.409 361.659C217.214 362.128 217.835 362.786 218.27 363.634C218.706 364.476 218.924 365.461 218.924 366.588C218.924 367.705 218.706 368.688 218.27 369.536C217.835 370.378 217.214 371.036 216.409 371.51C215.609 371.979 214.658 372.213 213.554 372.213ZM213.569 369.869C214.07 369.869 214.489 369.727 214.826 369.443C215.162 369.154 215.415 368.761 215.586 368.264C215.761 367.767 215.848 367.201 215.848 366.567C215.848 365.932 215.761 365.366 215.586 364.869C215.415 364.372 215.162 363.979 214.826 363.69C214.489 363.402 214.07 363.257 213.569 363.257C213.062 363.257 212.636 363.402 212.29 363.69C211.949 363.979 211.691 364.372 211.516 364.869C211.346 365.366 211.26 365.932 211.26 366.567C211.26 367.201 211.346 367.767 211.516 368.264C211.691 368.761 211.949 369.154 212.29 369.443C212.636 369.727 213.062 369.869 213.569 369.869ZM220.891 372V361.091H223.824V362.994H223.938C224.137 362.317 224.471 361.806 224.939 361.46C225.408 361.11 225.948 360.935 226.559 360.935C226.71 360.935 226.873 360.944 227.049 360.963C227.224 360.982 227.378 361.008 227.51 361.041V363.726C227.368 363.683 227.172 363.645 226.921 363.612C226.67 363.579 226.44 363.562 226.232 363.562C225.787 363.562 225.389 363.66 225.039 363.854C224.693 364.043 224.418 364.308 224.215 364.649C224.016 364.99 223.917 365.383 223.917 365.828V372H220.891ZM229.075 372V361.091H231.958V363.016H232.086C232.313 362.376 232.692 361.872 233.222 361.503C233.753 361.134 234.387 360.949 235.126 360.949C235.874 360.949 236.511 361.136 237.036 361.51C237.562 361.879 237.912 362.381 238.087 363.016H238.201C238.424 362.391 238.826 361.891 239.408 361.517C239.996 361.138 240.689 360.949 241.489 360.949C242.507 360.949 243.334 361.273 243.968 361.922C244.607 362.566 244.927 363.48 244.927 364.663V372H241.908V365.26C241.908 364.654 241.747 364.199 241.425 363.896C241.103 363.593 240.701 363.442 240.218 363.442C239.669 363.442 239.24 363.617 238.933 363.967C238.625 364.313 238.471 364.77 238.471 365.338V372H235.538V365.196C235.538 364.661 235.384 364.235 235.076 363.918C234.773 363.6 234.373 363.442 233.876 363.442C233.54 363.442 233.237 363.527 232.967 363.697C232.701 363.863 232.491 364.098 232.335 364.401C232.178 364.699 232.1 365.049 232.1 365.452V372H229.075ZM252.288 372.213C251.166 372.213 250.2 371.986 249.391 371.531C248.586 371.072 247.965 370.423 247.53 369.585C247.094 368.742 246.876 367.746 246.876 366.595C246.876 365.473 247.094 364.488 247.53 363.641C247.965 362.793 248.579 362.133 249.369 361.659C250.165 361.186 251.098 360.949 252.168 360.949C252.887 360.949 253.557 361.065 254.178 361.297C254.803 361.524 255.347 361.867 255.811 362.327C256.28 362.786 256.644 363.364 256.905 364.06C257.165 364.751 257.295 365.561 257.295 366.489V367.32H248.084V365.445H254.447C254.447 365.009 254.353 364.623 254.163 364.287C253.974 363.951 253.711 363.688 253.375 363.499C253.044 363.304 252.658 363.207 252.217 363.207C251.758 363.207 251.351 363.314 250.996 363.527C250.645 363.735 250.371 364.017 250.172 364.372C249.973 364.723 249.871 365.113 249.866 365.544V367.327C249.866 367.866 249.966 368.333 250.165 368.726C250.368 369.119 250.655 369.422 251.024 369.635C251.393 369.848 251.831 369.955 252.338 369.955C252.674 369.955 252.982 369.907 253.261 369.812C253.541 369.718 253.78 369.576 253.979 369.386C254.178 369.197 254.329 368.965 254.433 368.69L257.232 368.875C257.089 369.547 256.798 370.134 256.358 370.636C255.922 371.134 255.359 371.522 254.668 371.801C253.981 372.076 253.188 372.213 252.288 372.213ZM259.27 372V361.091H262.203V362.994H262.317C262.516 362.317 262.849 361.806 263.318 361.46C263.787 361.11 264.327 360.935 264.938 360.935C265.089 360.935 265.252 360.944 265.428 360.963C265.603 360.982 265.757 361.008 265.889 361.041V363.726C265.747 363.683 265.551 363.645 265.3 363.612C265.049 363.579 264.819 363.562 264.611 363.562C264.166 363.562 263.768 363.66 263.418 363.854C263.072 364.043 262.797 364.308 262.594 364.649C262.395 364.99 262.295 365.383 262.295 365.828V372H259.27Z" fill="#FFB000"/>
<rect x="102" width="230" height="78" fill="#1E1A34"/>
<path d="M191.456 34H186.299V19.4545H191.498C192.961 19.4545 194.221 19.7457 195.277 20.3281C196.333 20.9058 197.145 21.7367 197.713 22.821C198.286 23.9053 198.572 25.2027 198.572 26.7131C198.572 28.2282 198.286 29.5303 197.713 30.6193C197.145 31.7083 196.328 32.544 195.262 33.1264C194.202 33.7088 192.933 34 191.456 34ZM189.375 31.3651H191.328C192.237 31.3651 193.002 31.2041 193.622 30.8821C194.247 30.5554 194.716 30.0511 195.028 29.3693C195.345 28.6828 195.504 27.7973 195.504 26.7131C195.504 25.6383 195.345 24.7599 195.028 24.0781C194.716 23.3963 194.249 22.8944 193.629 22.5724C193.009 22.2505 192.244 22.0895 191.335 22.0895H189.375V31.3651ZM200.793 34V23.0909H203.819V34H200.793ZM202.313 21.6847C201.863 21.6847 201.478 21.5355 201.156 21.2372C200.838 20.9342 200.68 20.572 200.68 20.1506C200.68 19.7339 200.838 19.3764 201.156 19.0781C201.478 18.7751 201.863 18.6236 202.313 18.6236C202.763 18.6236 203.147 18.7751 203.464 19.0781C203.786 19.3764 203.947 19.7339 203.947 20.1506C203.947 20.572 203.786 20.9342 203.464 21.2372C203.147 21.5355 202.763 21.6847 202.313 21.6847ZM211.157 38.3182C210.177 38.3182 209.337 38.1832 208.636 37.9134C207.94 37.6482 207.386 37.286 206.974 36.8267C206.562 36.3674 206.295 35.8513 206.172 35.2784L208.97 34.902C209.055 35.1198 209.19 35.3234 209.375 35.5128C209.559 35.7022 209.803 35.8537 210.106 35.9673C210.414 36.0857 210.788 36.1449 211.228 36.1449C211.886 36.1449 212.429 35.9839 212.855 35.6619C213.286 35.3447 213.501 34.812 213.501 34.0639V32.0682H213.373C213.241 32.3712 213.042 32.6577 212.777 32.9276C212.511 33.1974 212.171 33.4176 211.754 33.5881C211.337 33.7585 210.84 33.8438 210.262 33.8438C209.443 33.8438 208.698 33.6544 208.025 33.2756C207.358 32.892 206.825 32.3073 206.427 31.5213C206.034 30.7306 205.838 29.7315 205.838 28.5241C205.838 27.2884 206.039 26.2562 206.441 25.4276C206.844 24.599 207.379 23.9787 208.047 23.5668C208.719 23.1548 209.455 22.9489 210.255 22.9489C210.866 22.9489 211.377 23.053 211.789 23.2614C212.201 23.465 212.533 23.7206 212.784 24.0284C213.039 24.3314 213.236 24.6297 213.373 24.9233H213.487V23.0909H216.491V34.1065C216.491 35.0346 216.264 35.8111 215.809 36.4361C215.355 37.0611 214.725 37.5298 213.92 37.8423C213.12 38.1596 212.199 38.3182 211.157 38.3182ZM211.221 31.571C211.709 31.571 212.121 31.4503 212.457 31.2088C212.798 30.9626 213.058 30.6122 213.238 30.1577C213.423 29.6984 213.515 29.1491 213.515 28.5099C213.515 27.8707 213.425 27.3168 213.245 26.848C213.065 26.3745 212.805 26.0076 212.464 25.7472C212.123 25.4867 211.709 25.3565 211.221 25.3565C210.724 25.3565 210.305 25.4915 209.964 25.7614C209.623 26.0265 209.365 26.3958 209.19 26.8693C209.015 27.3428 208.927 27.8897 208.927 28.5099C208.927 29.1397 209.015 29.6842 209.19 30.1435C209.37 30.598 209.628 30.9508 209.964 31.2017C210.305 31.4479 210.724 31.571 211.221 31.571ZM218.899 34V23.0909H221.924V34H218.899ZM220.419 21.6847C219.969 21.6847 219.583 21.5355 219.261 21.2372C218.944 20.9342 218.785 20.572 218.785 20.1506C218.785 19.7339 218.944 19.3764 219.261 19.0781C219.583 18.7751 219.969 18.6236 220.419 18.6236C220.868 18.6236 221.252 18.7751 221.569 19.0781C221.891 19.3764 222.052 19.7339 222.052 20.1506C222.052 20.572 221.891 20.9342 221.569 21.2372C221.252 21.5355 220.868 21.6847 220.419 21.6847ZM230.151 23.0909V25.3636H223.581V23.0909H230.151ZM225.072 20.4773H228.098V30.6477C228.098 30.9271 228.141 31.1449 228.226 31.3011C228.311 31.4527 228.429 31.5592 228.581 31.6207C228.737 31.6823 228.917 31.7131 229.121 31.7131C229.263 31.7131 229.405 31.7012 229.547 31.6776C229.689 31.6491 229.798 31.6278 229.874 31.6136L230.349 33.8651C230.198 33.9124 229.985 33.9669 229.71 34.0284C229.436 34.0947 229.102 34.1349 228.709 34.1491C227.98 34.1776 227.34 34.0805 226.791 33.858C226.247 33.6354 225.823 33.2898 225.52 32.821C225.217 32.3523 225.068 31.7604 225.072 31.0455V20.4773ZM235.232 34.206C234.536 34.206 233.916 34.0852 233.371 33.8438C232.827 33.5975 232.396 33.2353 232.079 32.7571C231.766 32.2741 231.61 31.6728 231.61 30.9531C231.61 30.3471 231.721 29.8381 231.944 29.4261C232.166 29.0142 232.469 28.6828 232.853 28.4318C233.237 28.1809 233.672 27.9915 234.16 27.8636C234.652 27.7358 235.168 27.6458 235.708 27.5938C236.343 27.5275 236.854 27.4659 237.242 27.4091C237.63 27.3475 237.912 27.2576 238.087 27.1392C238.263 27.0208 238.35 26.8456 238.35 26.6136V26.571C238.35 26.1212 238.208 25.7732 237.924 25.527C237.645 25.2808 237.247 25.1577 236.731 25.1577C236.186 25.1577 235.753 25.2784 235.431 25.5199C235.109 25.7566 234.896 26.0549 234.792 26.4148L231.994 26.1875C232.136 25.5246 232.415 24.9517 232.832 24.4688C233.248 23.9811 233.786 23.607 234.444 23.3466C235.107 23.0814 235.874 22.9489 236.745 22.9489C237.351 22.9489 237.931 23.0199 238.485 23.1619C239.044 23.304 239.539 23.5241 239.969 23.8224C240.405 24.1207 240.748 24.5043 240.999 24.973C241.25 25.437 241.376 25.9934 241.376 26.642V34H238.506V32.4872H238.421C238.246 32.8281 238.012 33.1288 237.718 33.3892C237.424 33.6449 237.072 33.8461 236.66 33.9929C236.248 34.1349 235.772 34.206 235.232 34.206ZM236.099 32.1179C236.544 32.1179 236.937 32.0303 237.278 31.8551C237.619 31.6752 237.886 31.4337 238.08 31.1307C238.274 30.8277 238.371 30.4844 238.371 30.1009V28.9432C238.277 29.0047 238.147 29.0616 237.981 29.1136C237.82 29.161 237.638 29.206 237.434 29.2486C237.23 29.2865 237.027 29.322 236.823 29.3551C236.62 29.3835 236.435 29.4096 236.269 29.4332C235.914 29.4853 235.604 29.5682 235.339 29.6818C235.074 29.7955 234.868 29.9493 234.721 30.1435C234.574 30.3329 234.501 30.5696 234.501 30.8537C234.501 31.2656 234.65 31.5805 234.948 31.7983C235.251 32.0114 235.635 32.1179 236.099 32.1179ZM246.749 19.4545V34H243.723V19.4545H246.749ZM169.014 51.6932V58H165.989V47.0909H168.872V49.0156H169C169.241 48.3812 169.646 47.8793 170.214 47.5099C170.783 47.1359 171.472 46.9489 172.281 46.9489C173.039 46.9489 173.699 47.1146 174.263 47.446C174.826 47.7775 175.264 48.2509 175.577 48.8665C175.889 49.4773 176.045 50.2064 176.045 51.054V58H173.02V51.5938C173.025 50.9261 172.854 50.4053 172.509 50.0312C172.163 49.6525 171.687 49.4631 171.081 49.4631C170.674 49.4631 170.314 49.5507 170.001 49.7259C169.694 49.901 169.452 50.1567 169.277 50.4929C169.107 50.8243 169.019 51.2244 169.014 51.6932ZM183.402 58.2131C182.279 58.2131 181.314 57.9858 180.504 57.5312C179.699 57.072 179.079 56.4233 178.643 55.5852C178.208 54.7424 177.99 53.7457 177.99 52.5952C177.99 51.473 178.208 50.4882 178.643 49.6406C179.079 48.7931 179.692 48.1326 180.483 47.6591C181.278 47.1856 182.211 46.9489 183.281 46.9489C184.001 46.9489 184.671 47.0649 185.291 47.2969C185.916 47.5241 186.46 47.8674 186.924 48.3267C187.393 48.786 187.758 49.3636 188.018 50.0597C188.279 50.7509 188.409 51.5606 188.409 52.4886V53.3196H179.197V51.4446H185.561C185.561 51.009 185.466 50.6231 185.277 50.2869C185.087 49.9508 184.824 49.688 184.488 49.4986C184.157 49.3045 183.771 49.2074 183.331 49.2074C182.871 49.2074 182.464 49.3139 182.109 49.527C181.759 49.7353 181.484 50.017 181.285 50.3722C181.086 50.7225 180.984 51.1132 180.98 51.544V53.3267C180.98 53.8665 181.079 54.3329 181.278 54.7259C181.482 55.1188 181.768 55.4219 182.137 55.6349C182.507 55.848 182.945 55.9545 183.451 55.9545C183.788 55.9545 184.095 55.9072 184.375 55.8125C184.654 55.7178 184.893 55.5758 185.092 55.3864C185.291 55.197 185.442 54.965 185.547 54.6903L188.345 54.875C188.203 55.5473 187.912 56.1345 187.471 56.6364C187.036 57.1335 186.472 57.5218 185.781 57.8011C185.094 58.0758 184.301 58.2131 183.402 58.2131ZM192.457 58L189.488 47.0909H192.549L194.24 54.4205H194.339L196.1 47.0909H199.105L200.895 54.3778H200.987L202.649 47.0909H205.703L202.741 58H199.538L197.663 51.1392H197.528L195.653 58H192.457ZM211.972 58.2131C210.855 58.2131 209.894 57.9763 209.089 57.5028C208.289 57.0246 207.673 56.3617 207.242 55.5142C206.816 54.6667 206.603 53.6913 206.603 52.5881C206.603 51.4706 206.818 50.4905 207.249 49.6477C207.685 48.8002 208.303 48.1397 209.103 47.6662C209.903 47.188 210.855 46.9489 211.958 46.9489C212.91 46.9489 213.743 47.1217 214.458 47.4673C215.173 47.813 215.739 48.2983 216.156 48.9233C216.572 49.5483 216.802 50.2822 216.844 51.125H213.989C213.909 50.5805 213.696 50.1425 213.35 49.8111C213.009 49.4749 212.562 49.3068 212.008 49.3068C211.539 49.3068 211.129 49.4347 210.779 49.6903C210.433 49.9413 210.164 50.3082 209.969 50.7912C209.775 51.2741 209.678 51.8589 209.678 52.5455C209.678 53.2415 209.773 53.8333 209.962 54.321C210.156 54.8087 210.429 55.1804 210.779 55.4361C211.129 55.6918 211.539 55.8196 212.008 55.8196C212.353 55.8196 212.664 55.7486 212.938 55.6065C213.218 55.4645 213.447 55.2585 213.627 54.9886C213.812 54.714 213.933 54.3849 213.989 54.0014H216.844C216.797 54.8348 216.57 55.5687 216.163 56.2031C215.76 56.8329 215.204 57.3253 214.494 57.6804C213.783 58.0355 212.943 58.2131 211.972 58.2131ZM223.711 58.2131C222.607 58.2131 221.653 57.9787 220.848 57.5099C220.048 57.0365 219.43 56.3783 218.995 55.5355C218.559 54.688 218.341 53.7055 218.341 52.5881C218.341 51.4612 218.559 50.4763 218.995 49.6335C219.43 48.786 220.048 48.1278 220.848 47.6591C221.653 47.1856 222.607 46.9489 223.711 46.9489C224.814 46.9489 225.766 47.1856 226.566 47.6591C227.371 48.1278 227.991 48.786 228.426 49.6335C228.862 50.4763 229.08 51.4612 229.08 52.5881C229.08 53.7055 228.862 54.688 228.426 55.5355C227.991 56.3783 227.371 57.0365 226.566 57.5099C225.766 57.9787 224.814 58.2131 223.711 58.2131ZM223.725 55.8693C224.227 55.8693 224.646 55.7273 224.982 55.4432C225.318 55.1544 225.571 54.7614 225.742 54.2642C225.917 53.767 226.005 53.2012 226.005 52.5668C226.005 51.9323 225.917 51.3665 225.742 50.8693C225.571 50.3722 225.318 49.9792 224.982 49.6903C224.646 49.4015 224.227 49.2571 223.725 49.2571C223.218 49.2571 222.792 49.4015 222.446 49.6903C222.105 49.9792 221.847 50.3722 221.672 50.8693C221.502 51.3665 221.417 51.9323 221.417 52.5668C221.417 53.2012 221.502 53.767 221.672 54.2642C221.847 54.7614 222.105 55.1544 222.446 55.4432C222.792 55.7273 223.218 55.8693 223.725 55.8693ZM231.047 58V47.0909H233.931V49.0156H234.059C234.286 48.3764 234.665 47.8722 235.195 47.5028C235.725 47.1335 236.36 46.9489 237.098 46.9489C237.846 46.9489 238.483 47.1359 239.009 47.5099C239.534 47.8793 239.885 48.3812 240.06 49.0156H240.174C240.396 48.3906 240.799 47.8911 241.381 47.517C241.968 47.1383 242.662 46.9489 243.462 46.9489C244.48 46.9489 245.306 47.2732 245.941 47.9219C246.58 48.5658 246.9 49.4796 246.9 50.6634V58H243.881V51.2599C243.881 50.6539 243.72 50.1993 243.398 49.8963C243.076 49.5933 242.674 49.4418 242.191 49.4418C241.641 49.4418 241.213 49.617 240.905 49.9673C240.597 50.313 240.444 50.7699 240.444 51.3381V58H237.51V51.196C237.51 50.661 237.356 50.2348 237.049 49.9176C236.746 49.6004 236.346 49.4418 235.848 49.4418C235.512 49.4418 235.209 49.527 234.939 49.6974C234.674 49.8632 234.463 50.0975 234.307 50.4006C234.151 50.6989 234.073 51.0492 234.073 51.4517V58H231.047ZM254.261 58.2131C253.139 58.2131 252.173 57.9858 251.363 57.5312C250.558 57.072 249.938 56.4233 249.502 55.5852C249.067 54.7424 248.849 53.7457 248.849 52.5952C248.849 51.473 249.067 50.4882 249.502 49.6406C249.938 48.7931 250.551 48.1326 251.342 47.6591C252.137 47.1856 253.07 46.9489 254.14 46.9489C254.86 46.9489 255.53 47.0649 256.15 47.2969C256.775 47.5241 257.32 47.8674 257.784 48.3267C258.252 48.786 258.617 49.3636 258.877 50.0597C259.138 50.7509 259.268 51.5606 259.268 52.4886V53.3196H250.056V51.4446H256.42C256.42 51.009 256.325 50.6231 256.136 50.2869C255.947 49.9508 255.684 49.688 255.348 49.4986C255.016 49.3045 254.63 49.2074 254.19 49.2074C253.731 49.2074 253.324 49.3139 252.968 49.527C252.618 49.7353 252.343 50.017 252.145 50.3722C251.946 50.7225 251.844 51.1132 251.839 51.544V53.3267C251.839 53.8665 251.939 54.3329 252.137 54.7259C252.341 55.1188 252.627 55.4219 252.997 55.6349C253.366 55.848 253.804 55.9545 254.311 55.9545C254.647 55.9545 254.955 55.9072 255.234 55.8125C255.513 55.7178 255.752 55.5758 255.951 55.3864C256.15 55.197 256.302 54.965 256.406 54.6903L259.204 54.875C259.062 55.5473 258.771 56.1345 258.331 56.6364C257.895 57.1335 257.332 57.5218 256.64 57.8011C255.954 58.0758 255.161 58.2131 254.261 58.2131ZM261.243 58V47.0909H264.176V48.9943H264.289C264.488 48.3172 264.822 47.8059 265.291 47.4602C265.76 47.1098 266.299 46.9347 266.91 46.9347C267.062 46.9347 267.225 46.9441 267.4 46.9631C267.575 46.982 267.729 47.008 267.862 47.0412V49.7259C267.72 49.6832 267.523 49.6454 267.272 49.6122C267.021 49.5791 266.792 49.5625 266.583 49.5625C266.138 49.5625 265.741 49.6596 265.39 49.8537C265.045 50.0431 264.77 50.3082 264.566 50.6491C264.368 50.9901 264.268 51.383 264.268 51.8281V58H261.243Z" fill="#FFB000"/>
<rect x="102" y="157" width="230" height="78" fill="#1E1A34"/>
<path d="M158.811 202H153.655V187.455H158.854C160.317 187.455 161.576 187.746 162.632 188.328C163.688 188.906 164.5 189.737 165.068 190.821C165.641 191.905 165.928 193.203 165.928 194.713C165.928 196.228 165.641 197.53 165.068 198.619C164.5 199.708 163.683 200.544 162.618 201.126C161.557 201.709 160.288 202 158.811 202ZM156.73 199.365H158.683C159.592 199.365 160.357 199.204 160.977 198.882C161.602 198.555 162.071 198.051 162.384 197.369C162.701 196.683 162.859 195.797 162.859 194.713C162.859 193.638 162.701 192.76 162.384 192.078C162.071 191.396 161.605 190.894 160.984 190.572C160.364 190.25 159.599 190.089 158.69 190.089H156.73V199.365ZM168.149 202V191.091H171.174V202H168.149ZM169.669 189.685C169.219 189.685 168.833 189.536 168.511 189.237C168.194 188.934 168.035 188.572 168.035 188.151C168.035 187.734 168.194 187.376 168.511 187.078C168.833 186.775 169.219 186.624 169.669 186.624C170.118 186.624 170.502 186.775 170.819 187.078C171.141 187.376 171.302 187.734 171.302 188.151C171.302 188.572 171.141 188.934 170.819 189.237C170.502 189.536 170.118 189.685 169.669 189.685ZM178.513 206.318C177.533 206.318 176.692 206.183 175.991 205.913C175.295 205.648 174.741 205.286 174.33 204.827C173.918 204.367 173.65 203.851 173.527 203.278L176.325 202.902C176.411 203.12 176.545 203.323 176.73 203.513C176.915 203.702 177.159 203.854 177.462 203.967C177.769 204.086 178.143 204.145 178.584 204.145C179.242 204.145 179.784 203.984 180.21 203.662C180.641 203.345 180.857 202.812 180.857 202.064V200.068H180.729C180.596 200.371 180.397 200.658 180.132 200.928C179.867 201.197 179.526 201.418 179.109 201.588C178.693 201.759 178.196 201.844 177.618 201.844C176.799 201.844 176.053 201.654 175.381 201.276C174.713 200.892 174.18 200.307 173.783 199.521C173.39 198.731 173.193 197.732 173.193 196.524C173.193 195.288 173.394 194.256 173.797 193.428C174.199 192.599 174.734 191.979 175.402 191.567C176.074 191.155 176.811 190.949 177.611 190.949C178.222 190.949 178.733 191.053 179.145 191.261C179.557 191.465 179.888 191.721 180.139 192.028C180.395 192.331 180.591 192.63 180.729 192.923H180.842V191.091H183.847V202.107C183.847 203.035 183.619 203.811 183.165 204.436C182.71 205.061 182.08 205.53 181.276 205.842C180.475 206.16 179.554 206.318 178.513 206.318ZM178.577 199.571C179.064 199.571 179.476 199.45 179.812 199.209C180.153 198.963 180.414 198.612 180.594 198.158C180.778 197.698 180.871 197.149 180.871 196.51C180.871 195.871 180.781 195.317 180.601 194.848C180.421 194.375 180.161 194.008 179.82 193.747C179.479 193.487 179.064 193.357 178.577 193.357C178.08 193.357 177.661 193.491 177.32 193.761C176.979 194.027 176.721 194.396 176.545 194.869C176.37 195.343 176.283 195.89 176.283 196.51C176.283 197.14 176.37 197.684 176.545 198.143C176.725 198.598 176.983 198.951 177.32 199.202C177.661 199.448 178.08 199.571 178.577 199.571ZM186.254 202V191.091H189.28V202H186.254ZM187.774 189.685C187.324 189.685 186.938 189.536 186.616 189.237C186.299 188.934 186.141 188.572 186.141 188.151C186.141 187.734 186.299 187.376 186.616 187.078C186.938 186.775 187.324 186.624 187.774 186.624C188.224 186.624 188.607 186.775 188.925 187.078C189.247 187.376 189.408 187.734 189.408 188.151C189.408 188.572 189.247 188.934 188.925 189.237C188.607 189.536 188.224 189.685 187.774 189.685ZM197.506 191.091V193.364H190.936V191.091H197.506ZM192.428 188.477H195.453V198.648C195.453 198.927 195.496 199.145 195.581 199.301C195.667 199.453 195.785 199.559 195.936 199.621C196.093 199.682 196.273 199.713 196.476 199.713C196.618 199.713 196.76 199.701 196.902 199.678C197.044 199.649 197.153 199.628 197.229 199.614L197.705 201.865C197.553 201.912 197.34 201.967 197.066 202.028C196.791 202.095 196.457 202.135 196.064 202.149C195.335 202.178 194.696 202.08 194.147 201.858C193.602 201.635 193.178 201.29 192.875 200.821C192.572 200.352 192.423 199.76 192.428 199.045V188.477ZM202.588 202.206C201.892 202.206 201.271 202.085 200.727 201.844C200.182 201.598 199.752 201.235 199.434 200.757C199.122 200.274 198.966 199.673 198.966 198.953C198.966 198.347 199.077 197.838 199.299 197.426C199.522 197.014 199.825 196.683 200.208 196.432C200.592 196.181 201.028 195.991 201.515 195.864C202.008 195.736 202.524 195.646 203.064 195.594C203.698 195.527 204.209 195.466 204.598 195.409C204.986 195.348 205.268 195.258 205.443 195.139C205.618 195.021 205.706 194.846 205.706 194.614V194.571C205.706 194.121 205.564 193.773 205.279 193.527C205 193.281 204.602 193.158 204.086 193.158C203.542 193.158 203.109 193.278 202.787 193.52C202.465 193.757 202.252 194.055 202.147 194.415L199.349 194.188C199.491 193.525 199.77 192.952 200.187 192.469C200.604 191.981 201.141 191.607 201.799 191.347C202.462 191.081 203.229 190.949 204.1 190.949C204.707 190.949 205.287 191.02 205.841 191.162C206.399 191.304 206.894 191.524 207.325 191.822C207.761 192.121 208.104 192.504 208.355 192.973C208.606 193.437 208.731 193.993 208.731 194.642V202H205.862V200.487H205.777C205.601 200.828 205.367 201.129 205.074 201.389C204.78 201.645 204.427 201.846 204.015 201.993C203.603 202.135 203.127 202.206 202.588 202.206ZM203.454 200.118C203.899 200.118 204.292 200.03 204.633 199.855C204.974 199.675 205.242 199.434 205.436 199.131C205.63 198.828 205.727 198.484 205.727 198.101V196.943C205.632 197.005 205.502 197.062 205.336 197.114C205.175 197.161 204.993 197.206 204.789 197.249C204.586 197.286 204.382 197.322 204.179 197.355C203.975 197.384 203.79 197.41 203.625 197.433C203.27 197.485 202.959 197.568 202.694 197.682C202.429 197.795 202.223 197.949 202.076 198.143C201.93 198.333 201.856 198.57 201.856 198.854C201.856 199.266 202.005 199.58 202.304 199.798C202.607 200.011 202.99 200.118 203.454 200.118ZM214.104 187.455V202H211.078V187.455H214.104ZM221.157 202V191.091H224.04V193.016H224.168C224.395 192.376 224.774 191.872 225.304 191.503C225.835 191.134 226.469 190.949 227.208 190.949C227.956 190.949 228.593 191.136 229.118 191.51C229.644 191.879 229.994 192.381 230.169 193.016H230.283C230.506 192.391 230.908 191.891 231.49 191.517C232.078 191.138 232.771 190.949 233.571 190.949C234.589 190.949 235.416 191.273 236.05 191.922C236.689 192.566 237.009 193.48 237.009 194.663V202H233.99V195.26C233.99 194.654 233.829 194.199 233.507 193.896C233.185 193.593 232.783 193.442 232.3 193.442C231.751 193.442 231.322 193.617 231.015 193.967C230.707 194.313 230.553 194.77 230.553 195.338V202H227.62V195.196C227.62 194.661 227.466 194.235 227.158 193.918C226.855 193.6 226.455 193.442 225.958 193.442C225.622 193.442 225.319 193.527 225.049 193.697C224.783 193.863 224.573 194.098 224.417 194.401C224.26 194.699 224.182 195.049 224.182 195.452V202H221.157ZM244.328 202.213C243.225 202.213 242.27 201.979 241.466 201.51C240.665 201.036 240.047 200.378 239.612 199.536C239.176 198.688 238.958 197.705 238.958 196.588C238.958 195.461 239.176 194.476 239.612 193.634C240.047 192.786 240.665 192.128 241.466 191.659C242.27 191.186 243.225 190.949 244.328 190.949C245.431 190.949 246.383 191.186 247.183 191.659C247.988 192.128 248.608 192.786 249.044 193.634C249.479 194.476 249.697 195.461 249.697 196.588C249.697 197.705 249.479 198.688 249.044 199.536C248.608 200.378 247.988 201.036 247.183 201.51C246.383 201.979 245.431 202.213 244.328 202.213ZM244.342 199.869C244.844 199.869 245.263 199.727 245.599 199.443C245.935 199.154 246.189 198.761 246.359 198.264C246.534 197.767 246.622 197.201 246.622 196.567C246.622 195.932 246.534 195.366 246.359 194.869C246.189 194.372 245.935 193.979 245.599 193.69C245.263 193.402 244.844 193.257 244.342 193.257C243.835 193.257 243.409 193.402 243.064 193.69C242.723 193.979 242.465 194.372 242.289 194.869C242.119 195.366 242.034 195.932 242.034 196.567C242.034 197.201 242.119 197.767 242.289 198.264C242.465 198.761 242.723 199.154 243.064 199.443C243.409 199.727 243.835 199.869 244.342 199.869ZM261.483 191.091L257.669 202H254.26L250.446 191.091H253.642L255.908 198.896H256.022L258.28 191.091H261.483ZM267.652 202.213C266.529 202.213 265.564 201.986 264.754 201.531C263.949 201.072 263.329 200.423 262.893 199.585C262.458 198.742 262.24 197.746 262.24 196.595C262.24 195.473 262.458 194.488 262.893 193.641C263.329 192.793 263.942 192.133 264.733 191.659C265.528 191.186 266.461 190.949 267.531 190.949C268.251 190.949 268.921 191.065 269.541 191.297C270.166 191.524 270.71 191.867 271.174 192.327C271.643 192.786 272.008 193.364 272.268 194.06C272.529 194.751 272.659 195.561 272.659 196.489V197.32H263.447V195.445H269.811C269.811 195.009 269.716 194.623 269.527 194.287C269.337 193.951 269.074 193.688 268.738 193.499C268.407 193.304 268.021 193.207 267.581 193.207C267.121 193.207 266.714 193.314 266.359 193.527C266.009 193.735 265.734 194.017 265.535 194.372C265.336 194.723 265.234 195.113 265.23 195.544V197.327C265.23 197.866 265.329 198.333 265.528 198.726C265.732 199.119 266.018 199.422 266.387 199.635C266.757 199.848 267.195 199.955 267.701 199.955C268.038 199.955 268.345 199.907 268.625 199.812C268.904 199.718 269.143 199.576 269.342 199.386C269.541 199.197 269.692 198.965 269.797 198.69L272.595 198.875C272.453 199.547 272.162 200.134 271.721 200.636C271.286 201.134 270.722 201.522 270.031 201.801C269.344 202.076 268.551 202.213 267.652 202.213ZM274.633 202V191.091H277.566V192.994H277.68C277.879 192.317 278.213 191.806 278.681 191.46C279.15 191.11 279.69 190.935 280.301 190.935C280.452 190.935 280.616 190.944 280.791 190.963C280.966 190.982 281.12 191.008 281.252 191.041V193.726C281.11 193.683 280.914 193.645 280.663 193.612C280.412 193.579 280.182 193.562 279.974 193.562C279.529 193.562 279.131 193.66 278.781 193.854C278.435 194.043 278.161 194.308 277.957 194.649C277.758 194.99 277.659 195.383 277.659 195.828V202H274.633Z" fill="#FFB000"/>
<rect x="239.269" y="93" width="26.7273" height="46.1791" transform="rotate(90 239.269 93)" fill="#FFB000"/>
<path d="M215.5 142L176.096 115.273L254.904 115.273L215.5 142Z" fill="#FFB000"/>
<rect x="239.269" y="250" width="26.7273" height="46.1791" transform="rotate(90 239.269 250)" fill="#FFB000"/>
<path d="M215.5 299L176.096 272.273L254.904 272.273L215.5 299Z" fill="#FFB000"/>
<path d="M45.0312 164.233L45.0312 228.767H10.0003C4.47749 228.767 0.000324249 224.29 0.000324249 218.767L0.000324249 174.233C0.000324249 168.71 4.47748 164.233 10.0003 164.233H45.0312Z" fill="#FFB000"/>
<path d="M84 196.5L43.0825 228.976L43.0825 164.024L84 196.5Z" fill="#FFB000"/>
</svg>
