<?xml version="1.0" encoding="utf-8"?>
<svg version="1.1" id="Layer_1" xmlns="http://www.w3.org/2000/svg" xmlns:xlink="http://www.w3.org/1999/xlink" x="0px" y="0px"
	 viewBox="0 0 332 392" style="enable-background:new 0 0 332 392;" xml:space="preserve">
<style type="text/css">
	.st0{fill:#1E1A34;}
	.st1{fill:#FFB000;}
	.st2{font-family:'Arial-BoldMT';}
	.st3{font-size:21px;}
</style>
<rect x="102" y="314" class="st0" width="230" height="78"/>
<rect x="102" y="0" class="st0" width="230" height="78"/>
<rect x="102" y="157" class="st0" width="230" height="78"/>
<polygon class="st1" points="239.3,115.3 239.3,93 193.1,93 193.1,115.3 176.1,115.3 215.5,142 254.9,115.3 "/>
<polygon class="st1" points="50.2,330.4 27.9,330.4 27.9,375.4 50.2,375.4 50.2,392 76.9,353.6 50.2,315.1 "/>
<polygon class="st1" points="239.3,272.3 239.3,250 193.1,250 193.1,272.3 176.1,272.3 215.5,299 254.9,272.3 "/>
<text transform="matrix(1 0 0 1 183.415 348.3627)"><tspan x="0" y="0" class="st1 st2 st3">Digital</tspan><tspan x="-17.5" y="22" class="st1 st2 st3">performer</tspan></text>
<text transform="matrix(1 0 0 1 183.415 191)"><tspan x="0" y="0" class="st1 st2 st3">Digital</tspan><tspan x="0.6" y="22" class="st1 st2 st3">mover</tspan></text>
<text transform="matrix(1 0 0 1 183.415 34.0001)"><tspan x="0" y="0" class="st1 st2 st3">Digital</tspan><tspan x="-19.9" y="22" class="st1 st2 st3">newcomer</tspan></text>
</svg>
