<?xml version="1.0" encoding="utf-8"?>
<svg version="1.1" id="Layer_1" xmlns="http://www.w3.org/2000/svg" xmlns:xlink="http://www.w3.org/1999/xlink" x="0px" y="0px"
	 viewBox="0 0 960 202" style="enable-background:new 0 0 960 202;" xml:space="preserve">
<style type="text/css">
	.st0{fill:#FFB000;}
	.st1{fill:#1E1A34;}
	.st2{font-family:'Arial-BoldMT';}
	.st3{font-size:26px;}
</style>
<polygon class="st0" points="327.2,45.5 302.9,6.1 302.9,21.7 282.6,21.7 282.6,67.9 302.9,67.9 302.9,84.9 "/>
<polygon class="st0" points="677.4,45.5 653.1,6.1 653.1,21.7 632.8,21.7 632.8,67.9 653.1,67.9 653.1,84.9 "/>
<polygon class="st0" points="479.8,123.6 440.4,147.9 456.1,147.9 456.1,168.2 502.2,168.2 502.2,147.9 519.2,147.9 "/>
<g>
	<rect x="700.4" class="st1" width="259.6" height="89.6"/>
	<text transform="matrix(1 0 0 1 725.2875 51.0797)" class="st0 st2 st3">Digital performer</text>
</g>
<g>
	<rect x="350.2" class="st1" width="259.6" height="89.6"/>
	<text transform="matrix(1 0 0 1 397.4785 51.0799)" class="st0 st2 st3">Digital mover</text>
</g>
<g>
	<rect class="st1" width="259.6" height="89.6"/>
	<text transform="matrix(1 0 0 1 21.9988 51.0798)" class="st0 st2 st3">Digital newcomer</text>
</g>
</svg>
