<svg width="960" height="202" viewBox="0 0 960 202" fill="none" xmlns="http://www.w3.org/2000/svg">
<rect y="1.35822" width="259.606" height="89.6418" fill="#1E1A34"/>
<rect x="350.197" y="1.35822" width="259.606" height="89.6418" fill="#1E1A34"/>
<rect x="700.395" y="1.35822" width="259.606" height="89.6418" fill="#1E1A34"/>
<rect x="282.592" y="21.7313" width="24.338" height="46.1791" fill="#FFB000"/>
<path d="M327.211 45.5L302.873 84.9042V6.09584L327.211 45.5Z" fill="#FFB000"/>
<rect x="632.789" y="21.7313" width="24.338" height="46.1791" fill="#FFB000"/>
<path d="M677.408 45.5L653.07 84.9042V6.09584L677.408 45.5Z" fill="#FFB000"/>
<path d="M97.4336 39H93.0996L93.127 35.8008H97.4336C98.5091 35.8008 99.416 35.5592 100.154 35.0762C100.893 34.584 101.449 33.8685 101.822 32.9297C102.205 31.9909 102.396 30.8561 102.396 29.5254V28.5547C102.396 27.5339 102.287 26.6361 102.068 25.8613C101.859 25.0866 101.544 24.4349 101.125 23.9062C100.706 23.3776 100.191 22.9811 99.5801 22.7168C98.9694 22.4434 98.2676 22.3066 97.4746 22.3066H93.0176V19.0938H97.4746C98.8053 19.0938 100.022 19.3216 101.125 19.7773C102.237 20.224 103.199 20.8665 104.01 21.7051C104.821 22.5436 105.445 23.5462 105.883 24.7129C106.329 25.8704 106.553 27.1602 106.553 28.582V29.5254C106.553 30.9382 106.329 32.2279 105.883 33.3945C105.445 34.5612 104.821 35.5638 104.01 36.4023C103.208 37.2318 102.246 37.8743 101.125 38.3301C100.013 38.7767 98.7826 39 97.4336 39ZM95.4238 19.0938V39H91.3223V19.0938H95.4238ZM113.443 24.207V39H109.492V24.207H113.443ZM109.246 20.3516C109.246 19.7773 109.447 19.3034 109.848 18.9297C110.249 18.556 110.786 18.3691 111.461 18.3691C112.126 18.3691 112.66 18.556 113.061 18.9297C113.471 19.3034 113.676 19.7773 113.676 20.3516C113.676 20.9258 113.471 21.3997 113.061 21.7734C112.66 22.1471 112.126 22.334 111.461 22.334C110.786 22.334 110.249 22.1471 109.848 21.7734C109.447 21.3997 109.246 20.9258 109.246 20.3516ZM126.062 24.207H129.631V38.5078C129.631 39.8568 129.33 41.0007 128.729 41.9395C128.136 42.8874 127.307 43.6029 126.24 44.0859C125.174 44.5781 123.934 44.8242 122.521 44.8242C121.902 44.8242 121.245 44.7422 120.553 44.5781C119.869 44.4141 119.213 44.1589 118.584 43.8125C117.964 43.4661 117.445 43.0286 117.025 42.5L118.762 40.1758C119.217 40.7044 119.746 41.1146 120.348 41.4062C120.949 41.707 121.615 41.8574 122.344 41.8574C123.055 41.8574 123.656 41.7253 124.148 41.4609C124.641 41.2057 125.019 40.8275 125.283 40.3262C125.548 39.834 125.68 39.237 125.68 38.5352V27.625L126.062 24.207ZM116.109 31.7812V31.4941C116.109 30.3639 116.246 29.3385 116.52 28.418C116.802 27.4883 117.199 26.6908 117.709 26.0254C118.229 25.36 118.857 24.8451 119.596 24.4805C120.334 24.1159 121.168 23.9336 122.098 23.9336C123.082 23.9336 123.907 24.1159 124.572 24.4805C125.238 24.8451 125.785 25.3646 126.213 26.0391C126.641 26.7044 126.974 27.4928 127.211 28.4043C127.457 29.3066 127.648 30.2956 127.785 31.3711V32C127.648 33.0299 127.443 33.987 127.17 34.8711C126.896 35.7552 126.536 36.5299 126.09 37.1953C125.643 37.8516 125.087 38.362 124.422 38.7266C123.766 39.0911 122.982 39.2734 122.07 39.2734C121.159 39.2734 120.334 39.0866 119.596 38.7129C118.867 38.3392 118.242 37.8151 117.723 37.1406C117.203 36.4661 116.802 35.6732 116.52 34.7617C116.246 33.8503 116.109 32.8568 116.109 31.7812ZM120.047 31.4941V31.7812C120.047 32.3919 120.106 32.9616 120.225 33.4902C120.343 34.0189 120.525 34.4883 120.771 34.8984C121.027 35.2995 121.341 35.6139 121.715 35.8418C122.098 36.0605 122.549 36.1699 123.068 36.1699C123.788 36.1699 124.376 36.0195 124.832 35.7188C125.288 35.4089 125.63 34.985 125.857 34.4473C126.085 33.9095 126.217 33.2897 126.254 32.5879V30.7969C126.236 30.2227 126.158 29.7077 126.021 29.252C125.885 28.7871 125.693 28.3906 125.447 28.0625C125.201 27.7344 124.882 27.4792 124.49 27.2969C124.098 27.1146 123.633 27.0234 123.096 27.0234C122.576 27.0234 122.125 27.1419 121.742 27.3789C121.368 27.6068 121.054 27.9212 120.799 28.3223C120.553 28.7233 120.366 29.1973 120.238 29.7441C120.111 30.2819 120.047 30.8652 120.047 31.4941ZM136.85 24.207V39H132.898V24.207H136.85ZM132.652 20.3516C132.652 19.7773 132.853 19.3034 133.254 18.9297C133.655 18.556 134.193 18.3691 134.867 18.3691C135.533 18.3691 136.066 18.556 136.467 18.9297C136.877 19.3034 137.082 19.7773 137.082 20.3516C137.082 20.9258 136.877 21.3997 136.467 21.7734C136.066 22.1471 135.533 22.334 134.867 22.334C134.193 22.334 133.655 22.1471 133.254 21.7734C132.853 21.3997 132.652 20.9258 132.652 20.3516ZM147.35 24.207V26.9961H138.736V24.207H147.35ZM140.869 20.5566H144.807V34.543C144.807 34.9714 144.861 35.2995 144.971 35.5273C145.089 35.7552 145.262 35.9147 145.49 36.0059C145.718 36.0879 146.005 36.1289 146.352 36.1289C146.598 36.1289 146.816 36.1198 147.008 36.1016C147.208 36.0742 147.377 36.0469 147.514 36.0195L147.527 38.918C147.19 39.0273 146.826 39.1139 146.434 39.1777C146.042 39.2415 145.609 39.2734 145.135 39.2734C144.269 39.2734 143.512 39.1322 142.865 38.8496C142.227 38.5579 141.735 38.0931 141.389 37.4551C141.042 36.8171 140.869 35.9785 140.869 34.9395V20.5566ZM157.576 35.6641V29.0742C157.576 28.6003 157.499 28.1947 157.344 27.8574C157.189 27.5111 156.947 27.2422 156.619 27.0508C156.3 26.8594 155.885 26.7637 155.375 26.7637C154.938 26.7637 154.559 26.8411 154.24 26.9961C153.921 27.1419 153.675 27.3561 153.502 27.6387C153.329 27.9121 153.242 28.2357 153.242 28.6094H149.305C149.305 27.9805 149.451 27.3835 149.742 26.8184C150.034 26.2533 150.458 25.7565 151.014 25.3281C151.57 24.8906 152.23 24.5488 152.996 24.3027C153.771 24.0566 154.637 23.9336 155.594 23.9336C156.742 23.9336 157.763 24.125 158.656 24.5078C159.549 24.8906 160.251 25.4648 160.762 26.2305C161.281 26.9961 161.541 27.9531 161.541 29.1016V35.4316C161.541 36.2428 161.591 36.9082 161.691 37.4277C161.792 37.9382 161.938 38.3848 162.129 38.7676V39H158.15C157.959 38.599 157.813 38.0977 157.713 37.4961C157.622 36.8854 157.576 36.2747 157.576 35.6641ZM158.096 29.9902L158.123 32.2188H155.922C155.402 32.2188 154.951 32.278 154.568 32.3965C154.186 32.515 153.871 32.6836 153.625 32.9023C153.379 33.112 153.197 33.3581 153.078 33.6406C152.969 33.9232 152.914 34.2331 152.914 34.5703C152.914 34.9076 152.992 35.2129 153.146 35.4863C153.301 35.7507 153.525 35.9603 153.816 36.1152C154.108 36.2611 154.45 36.334 154.842 36.334C155.434 36.334 155.949 36.2155 156.387 35.9785C156.824 35.7415 157.161 35.4499 157.398 35.1035C157.645 34.7572 157.772 34.429 157.781 34.1191L158.82 35.7871C158.674 36.1608 158.474 36.5482 158.219 36.9492C157.973 37.3503 157.658 37.7285 157.275 38.084C156.893 38.4303 156.432 38.7174 155.895 38.9453C155.357 39.1641 154.719 39.2734 153.98 39.2734C153.042 39.2734 152.189 39.0866 151.424 38.7129C150.667 38.3301 150.066 37.806 149.619 37.1406C149.182 36.4661 148.963 35.7005 148.963 34.8438C148.963 34.069 149.109 33.3809 149.4 32.7793C149.692 32.1777 150.12 31.6719 150.686 31.2617C151.26 30.8424 151.975 30.528 152.832 30.3184C153.689 30.0996 154.682 29.9902 155.812 29.9902H158.096ZM168.732 18V39H164.781V18H168.732ZM69.6797 60.3652V72H65.7422V57.207H69.4336L69.6797 60.3652ZM69.1055 64.084H68.0391C68.0391 62.9902 68.1803 62.0059 68.4629 61.1309C68.7454 60.2467 69.1419 59.4948 69.6523 58.875C70.1628 58.2461 70.7689 57.7676 71.4707 57.4395C72.1816 57.1022 72.9746 56.9336 73.8496 56.9336C74.5423 56.9336 75.1758 57.0339 75.75 57.2344C76.3242 57.4349 76.8164 57.7539 77.2266 58.1914C77.6458 58.6289 77.9648 59.2077 78.1836 59.9277C78.4115 60.6478 78.5254 61.5273 78.5254 62.5664V72H74.5605V62.5527C74.5605 61.8965 74.4694 61.3861 74.2871 61.0215C74.1048 60.6569 73.8359 60.4017 73.4805 60.2559C73.1341 60.1009 72.7057 60.0234 72.1953 60.0234C71.6667 60.0234 71.2064 60.1283 70.8145 60.3379C70.4316 60.5475 70.1126 60.8392 69.8574 61.2129C69.6113 61.5775 69.4245 62.0059 69.2969 62.498C69.1693 62.9902 69.1055 63.5189 69.1055 64.084ZM88.3281 72.2734C87.1797 72.2734 86.1497 72.0911 85.2383 71.7266C84.3268 71.3529 83.5521 70.8379 82.9141 70.1816C82.2852 69.5254 81.8021 68.7643 81.4648 67.8984C81.1276 67.0234 80.959 66.0938 80.959 65.1094V64.5625C80.959 63.4414 81.1185 62.416 81.4375 61.4863C81.7565 60.5566 82.2122 59.75 82.8047 59.0664C83.4062 58.3828 84.1354 57.8587 84.9922 57.4941C85.849 57.1204 86.8151 56.9336 87.8906 56.9336C88.9388 56.9336 89.8685 57.1068 90.6797 57.4531C91.4909 57.7995 92.1699 58.2917 92.7168 58.9297C93.2728 59.5677 93.6921 60.3333 93.9746 61.2266C94.2572 62.1107 94.3984 63.0951 94.3984 64.1797V65.8203H82.6406V63.1953H90.5293V62.8945C90.5293 62.3477 90.429 61.86 90.2285 61.4316C90.0371 60.9941 89.7454 60.6478 89.3535 60.3926C88.9616 60.1374 88.4603 60.0098 87.8496 60.0098C87.3301 60.0098 86.8835 60.1237 86.5098 60.3516C86.1361 60.5794 85.8307 60.8984 85.5938 61.3086C85.3659 61.7188 85.1927 62.2018 85.0742 62.7578C84.9648 63.3047 84.9102 63.9062 84.9102 64.5625V65.1094C84.9102 65.7018 84.9922 66.2487 85.1562 66.75C85.3294 67.2513 85.571 67.6842 85.8809 68.0488C86.1999 68.4134 86.5827 68.696 87.0293 68.8965C87.485 69.097 88 69.1973 88.5742 69.1973C89.2852 69.1973 89.946 69.0605 90.5566 68.7871C91.1764 68.5046 91.7096 68.0807 92.1562 67.5156L94.0703 69.5938C93.7604 70.0404 93.3366 70.4688 92.7988 70.8789C92.2702 71.2891 91.6322 71.6263 90.8848 71.8906C90.1374 72.1458 89.2852 72.2734 88.3281 72.2734ZM100.865 68.1719L103.941 57.207H106.443L105.637 61.5137L102.561 72H100.469L100.865 68.1719ZM99.3066 57.207L101.508 68.1582L101.713 72H99.252L95.5059 57.207H99.3066ZM109.26 67.9805L111.406 57.207H115.221L111.475 72H109.027L109.26 67.9805ZM106.785 57.207L109.848 68.0898L110.271 72H108.166L105.09 61.5273L104.311 57.207H106.785ZM123.314 69.1973C123.798 69.1973 124.226 69.1061 124.6 68.9238C124.973 68.7324 125.265 68.4681 125.475 68.1309C125.693 67.7845 125.807 67.3789 125.816 66.9141H129.521C129.512 67.9531 129.234 68.8783 128.688 69.6895C128.141 70.4915 127.407 71.125 126.486 71.5898C125.566 72.0456 124.536 72.2734 123.396 72.2734C122.248 72.2734 121.245 72.082 120.389 71.6992C119.541 71.3164 118.835 70.7878 118.27 70.1133C117.704 69.4297 117.281 68.6367 116.998 67.7344C116.715 66.8229 116.574 65.8477 116.574 64.8086V64.4121C116.574 63.3639 116.715 62.3887 116.998 61.4863C117.281 60.5749 117.704 59.7819 118.27 59.1074C118.835 58.4238 119.541 57.8906 120.389 57.5078C121.236 57.125 122.23 56.9336 123.369 56.9336C124.581 56.9336 125.643 57.166 126.555 57.6309C127.475 58.0957 128.195 58.7611 128.715 59.627C129.243 60.4837 129.512 61.5 129.521 62.6758H125.816C125.807 62.1836 125.702 61.737 125.502 61.3359C125.311 60.9349 125.028 60.6159 124.654 60.3789C124.29 60.1328 123.839 60.0098 123.301 60.0098C122.727 60.0098 122.257 60.1328 121.893 60.3789C121.528 60.6159 121.245 60.944 121.045 61.3633C120.844 61.7734 120.703 62.2428 120.621 62.7715C120.548 63.291 120.512 63.8379 120.512 64.4121V64.8086C120.512 65.3828 120.548 65.9342 120.621 66.4629C120.694 66.9915 120.831 67.4609 121.031 67.8711C121.241 68.2812 121.528 68.6048 121.893 68.8418C122.257 69.0788 122.731 69.1973 123.314 69.1973ZM131.176 64.7539V64.4668C131.176 63.3822 131.331 62.3841 131.641 61.4727C131.951 60.5521 132.402 59.7546 132.994 59.0801C133.587 58.4056 134.316 57.8815 135.182 57.5078C136.048 57.125 137.041 56.9336 138.162 56.9336C139.283 56.9336 140.281 57.125 141.156 57.5078C142.031 57.8815 142.765 58.4056 143.357 59.0801C143.959 59.7546 144.415 60.5521 144.725 61.4727C145.035 62.3841 145.189 63.3822 145.189 64.4668V64.7539C145.189 65.8294 145.035 66.8275 144.725 67.748C144.415 68.6595 143.959 69.457 143.357 70.1406C142.765 70.8151 142.036 71.3392 141.17 71.7129C140.304 72.0866 139.311 72.2734 138.189 72.2734C137.068 72.2734 136.07 72.0866 135.195 71.7129C134.329 71.3392 133.596 70.8151 132.994 70.1406C132.402 69.457 131.951 68.6595 131.641 67.748C131.331 66.8275 131.176 65.8294 131.176 64.7539ZM135.113 64.4668V64.7539C135.113 65.3737 135.168 65.9525 135.277 66.4902C135.387 67.028 135.56 67.502 135.797 67.9121C136.043 68.3132 136.362 68.6276 136.754 68.8555C137.146 69.0833 137.624 69.1973 138.189 69.1973C138.736 69.1973 139.206 69.0833 139.598 68.8555C139.99 68.6276 140.304 68.3132 140.541 67.9121C140.778 67.502 140.951 67.028 141.061 66.4902C141.179 65.9525 141.238 65.3737 141.238 64.7539V64.4668C141.238 63.8652 141.179 63.3001 141.061 62.7715C140.951 62.2337 140.773 61.7598 140.527 61.3496C140.29 60.9303 139.976 60.6022 139.584 60.3652C139.192 60.1283 138.718 60.0098 138.162 60.0098C137.606 60.0098 137.132 60.1283 136.74 60.3652C136.357 60.6022 136.043 60.9303 135.797 61.3496C135.56 61.7598 135.387 62.2337 135.277 62.7715C135.168 63.3001 135.113 63.8652 135.113 64.4668ZM151.547 60.2695V72H147.596V57.207H151.301L151.547 60.2695ZM151 64.084H149.906C149.906 63.054 150.029 62.1061 150.275 61.2402C150.531 60.3652 150.9 59.6087 151.383 58.9707C151.875 58.3236 152.481 57.8223 153.201 57.4668C153.921 57.1113 154.755 56.9336 155.703 56.9336C156.359 56.9336 156.961 57.0339 157.508 57.2344C158.055 57.4258 158.524 57.7311 158.916 58.1504C159.317 58.5605 159.627 59.0983 159.846 59.7637C160.064 60.4199 160.174 61.2083 160.174 62.1289V72H156.236V62.5664C156.236 61.8919 156.145 61.3724 155.963 61.0078C155.781 60.6432 155.521 60.388 155.184 60.2422C154.855 60.0964 154.459 60.0234 153.994 60.0234C153.484 60.0234 153.037 60.1283 152.654 60.3379C152.281 60.5475 151.971 60.8392 151.725 61.2129C151.479 61.5775 151.296 62.0059 151.178 62.498C151.059 62.9902 151 63.5189 151 64.084ZM159.805 63.6328L158.396 63.8105C158.396 62.8444 158.515 61.9466 158.752 61.1172C158.998 60.2878 159.358 59.5586 159.832 58.9297C160.315 58.3008 160.912 57.8132 161.623 57.4668C162.334 57.1113 163.154 56.9336 164.084 56.9336C164.795 56.9336 165.442 57.0384 166.025 57.248C166.609 57.4486 167.105 57.7721 167.516 58.2188C167.935 58.6562 168.254 59.2305 168.473 59.9414C168.701 60.6523 168.814 61.5228 168.814 62.5527V72H164.863V62.5527C164.863 61.8691 164.772 61.3496 164.59 60.9941C164.417 60.6296 164.161 60.3789 163.824 60.2422C163.496 60.0964 163.104 60.0234 162.648 60.0234C162.174 60.0234 161.76 60.1191 161.404 60.3105C161.049 60.4928 160.753 60.748 160.516 61.0762C160.279 61.4043 160.101 61.7871 159.982 62.2246C159.864 62.653 159.805 63.1224 159.805 63.6328ZM178.672 72.2734C177.523 72.2734 176.493 72.0911 175.582 71.7266C174.671 71.3529 173.896 70.8379 173.258 70.1816C172.629 69.5254 172.146 68.7643 171.809 67.8984C171.471 67.0234 171.303 66.0938 171.303 65.1094V64.5625C171.303 63.4414 171.462 62.416 171.781 61.4863C172.1 60.5566 172.556 59.75 173.148 59.0664C173.75 58.3828 174.479 57.8587 175.336 57.4941C176.193 57.1204 177.159 56.9336 178.234 56.9336C179.283 56.9336 180.212 57.1068 181.023 57.4531C181.835 57.7995 182.514 58.2917 183.061 58.9297C183.617 59.5677 184.036 60.3333 184.318 61.2266C184.601 62.1107 184.742 63.0951 184.742 64.1797V65.8203H172.984V63.1953H180.873V62.8945C180.873 62.3477 180.773 61.86 180.572 61.4316C180.381 60.9941 180.089 60.6478 179.697 60.3926C179.305 60.1374 178.804 60.0098 178.193 60.0098C177.674 60.0098 177.227 60.1237 176.854 60.3516C176.48 60.5794 176.174 60.8984 175.938 61.3086C175.71 61.7188 175.536 62.2018 175.418 62.7578C175.309 63.3047 175.254 63.9062 175.254 64.5625V65.1094C175.254 65.7018 175.336 66.2487 175.5 66.75C175.673 67.2513 175.915 67.6842 176.225 68.0488C176.544 68.4134 176.926 68.696 177.373 68.8965C177.829 69.097 178.344 69.1973 178.918 69.1973C179.629 69.1973 180.29 69.0605 180.9 68.7871C181.52 68.5046 182.053 68.0807 182.5 67.5156L184.414 69.5938C184.104 70.0404 183.68 70.4688 183.143 70.8789C182.614 71.2891 181.976 71.6263 181.229 71.8906C180.481 72.1458 179.629 72.2734 178.672 72.2734ZM190.922 60.4336V72H186.984V57.207H190.689L190.922 60.4336ZM195.379 57.1113L195.311 60.7617C195.119 60.7344 194.887 60.7116 194.613 60.6934C194.349 60.666 194.107 60.6523 193.889 60.6523C193.333 60.6523 192.85 60.7253 192.439 60.8711C192.038 61.0078 191.701 61.2129 191.428 61.4863C191.163 61.7598 190.963 62.0924 190.826 62.4844C190.699 62.8763 190.626 63.3229 190.607 63.8242L189.814 63.5781C189.814 62.6211 189.91 61.7415 190.102 60.9395C190.293 60.1283 190.571 59.4219 190.936 58.8203C191.309 58.2188 191.765 57.7539 192.303 57.4258C192.84 57.0977 193.456 56.9336 194.148 56.9336C194.367 56.9336 194.59 56.9518 194.818 56.9883C195.046 57.0156 195.233 57.0566 195.379 57.1113Z" fill="#FFB000"/>
<path d="M403.84 55H399.506L399.533 51.8008H403.84C404.915 51.8008 405.822 51.5592 406.561 51.0762C407.299 50.584 407.855 49.8685 408.229 48.9297C408.611 47.9909 408.803 46.8561 408.803 45.5254V44.5547C408.803 43.5339 408.693 42.6361 408.475 41.8613C408.265 41.0866 407.951 40.4349 407.531 39.9062C407.112 39.3776 406.597 38.9811 405.986 38.7168C405.376 38.4434 404.674 38.3066 403.881 38.3066H399.424V35.0938H403.881C405.212 35.0938 406.428 35.3216 407.531 35.7773C408.643 36.224 409.605 36.8665 410.416 37.7051C411.227 38.5436 411.852 39.5462 412.289 40.7129C412.736 41.8704 412.959 43.1602 412.959 44.582V45.5254C412.959 46.9382 412.736 48.2279 412.289 49.3945C411.852 50.5612 411.227 51.5638 410.416 52.4023C409.614 53.2318 408.652 53.8743 407.531 54.3301C406.419 54.7767 405.189 55 403.84 55ZM401.83 35.0938V55H397.729V35.0938H401.83ZM419.85 40.207V55H415.898V40.207H419.85ZM415.652 36.3516C415.652 35.7773 415.853 35.3034 416.254 34.9297C416.655 34.556 417.193 34.3691 417.867 34.3691C418.533 34.3691 419.066 34.556 419.467 34.9297C419.877 35.3034 420.082 35.7773 420.082 36.3516C420.082 36.9258 419.877 37.3997 419.467 37.7734C419.066 38.1471 418.533 38.334 417.867 38.334C417.193 38.334 416.655 38.1471 416.254 37.7734C415.853 37.3997 415.652 36.9258 415.652 36.3516ZM432.469 40.207H436.037V54.5078C436.037 55.8568 435.736 57.0007 435.135 57.9395C434.542 58.8874 433.713 59.6029 432.646 60.0859C431.58 60.5781 430.34 60.8242 428.928 60.8242C428.308 60.8242 427.652 60.7422 426.959 60.5781C426.275 60.4141 425.619 60.1589 424.99 59.8125C424.37 59.4661 423.851 59.0286 423.432 58.5L425.168 56.1758C425.624 56.7044 426.152 57.1146 426.754 57.4062C427.355 57.707 428.021 57.8574 428.75 57.8574C429.461 57.8574 430.062 57.7253 430.555 57.4609C431.047 57.2057 431.425 56.8275 431.689 56.3262C431.954 55.834 432.086 55.237 432.086 54.5352V43.625L432.469 40.207ZM422.516 47.7812V47.4941C422.516 46.3639 422.652 45.3385 422.926 44.418C423.208 43.4883 423.605 42.6908 424.115 42.0254C424.635 41.36 425.264 40.8451 426.002 40.4805C426.74 40.1159 427.574 39.9336 428.504 39.9336C429.488 39.9336 430.313 40.1159 430.979 40.4805C431.644 40.8451 432.191 41.3646 432.619 42.0391C433.048 42.7044 433.38 43.4928 433.617 44.4043C433.863 45.3066 434.055 46.2956 434.191 47.3711V48C434.055 49.0299 433.85 49.987 433.576 50.8711C433.303 51.7552 432.943 52.5299 432.496 53.1953C432.049 53.8516 431.493 54.362 430.828 54.7266C430.172 55.0911 429.388 55.2734 428.477 55.2734C427.565 55.2734 426.74 55.0866 426.002 54.7129C425.273 54.3392 424.648 53.8151 424.129 53.1406C423.609 52.4661 423.208 51.6732 422.926 50.7617C422.652 49.8503 422.516 48.8568 422.516 47.7812ZM426.453 47.4941V47.7812C426.453 48.3919 426.512 48.9616 426.631 49.4902C426.749 50.0189 426.932 50.4883 427.178 50.8984C427.433 51.2995 427.747 51.6139 428.121 51.8418C428.504 52.0605 428.955 52.1699 429.475 52.1699C430.195 52.1699 430.783 52.0195 431.238 51.7188C431.694 51.4089 432.036 50.985 432.264 50.4473C432.492 49.9095 432.624 49.2897 432.66 48.5879V46.7969C432.642 46.2227 432.564 45.7077 432.428 45.252C432.291 44.7871 432.1 44.3906 431.854 44.0625C431.607 43.7344 431.288 43.4792 430.896 43.2969C430.505 43.1146 430.04 43.0234 429.502 43.0234C428.982 43.0234 428.531 43.1419 428.148 43.3789C427.775 43.6068 427.46 43.9212 427.205 44.3223C426.959 44.7233 426.772 45.1973 426.645 45.7441C426.517 46.2819 426.453 46.8652 426.453 47.4941ZM443.256 40.207V55H439.305V40.207H443.256ZM439.059 36.3516C439.059 35.7773 439.259 35.3034 439.66 34.9297C440.061 34.556 440.599 34.3691 441.273 34.3691C441.939 34.3691 442.472 34.556 442.873 34.9297C443.283 35.3034 443.488 35.7773 443.488 36.3516C443.488 36.9258 443.283 37.3997 442.873 37.7734C442.472 38.1471 441.939 38.334 441.273 38.334C440.599 38.334 440.061 38.1471 439.66 37.7734C439.259 37.3997 439.059 36.9258 439.059 36.3516ZM453.756 40.207V42.9961H445.143V40.207H453.756ZM447.275 36.5566H451.213V50.543C451.213 50.9714 451.268 51.2995 451.377 51.5273C451.495 51.7552 451.669 51.9147 451.896 52.0059C452.124 52.0879 452.411 52.1289 452.758 52.1289C453.004 52.1289 453.223 52.1198 453.414 52.1016C453.615 52.0742 453.783 52.0469 453.92 52.0195L453.934 54.918C453.596 55.0273 453.232 55.1139 452.84 55.1777C452.448 55.2415 452.015 55.2734 451.541 55.2734C450.675 55.2734 449.919 55.1322 449.271 54.8496C448.633 54.5579 448.141 54.0931 447.795 53.4551C447.449 52.8171 447.275 51.9785 447.275 50.9395V36.5566ZM463.982 51.6641V45.0742C463.982 44.6003 463.905 44.1947 463.75 43.8574C463.595 43.5111 463.354 43.2422 463.025 43.0508C462.706 42.8594 462.292 42.7637 461.781 42.7637C461.344 42.7637 460.965 42.8411 460.646 42.9961C460.327 43.1419 460.081 43.3561 459.908 43.6387C459.735 43.9121 459.648 44.2357 459.648 44.6094H455.711C455.711 43.9805 455.857 43.3835 456.148 42.8184C456.44 42.2533 456.864 41.7565 457.42 41.3281C457.976 40.8906 458.637 40.5488 459.402 40.3027C460.177 40.0566 461.043 39.9336 462 39.9336C463.148 39.9336 464.169 40.125 465.062 40.5078C465.956 40.8906 466.658 41.4648 467.168 42.2305C467.688 42.9961 467.947 43.9531 467.947 45.1016V51.4316C467.947 52.2428 467.997 52.9082 468.098 53.4277C468.198 53.9382 468.344 54.3848 468.535 54.7676V55H464.557C464.365 54.599 464.219 54.0977 464.119 53.4961C464.028 52.8854 463.982 52.2747 463.982 51.6641ZM464.502 45.9902L464.529 48.2188H462.328C461.809 48.2188 461.357 48.278 460.975 48.3965C460.592 48.515 460.277 48.6836 460.031 48.9023C459.785 49.112 459.603 49.3581 459.484 49.6406C459.375 49.9232 459.32 50.2331 459.32 50.5703C459.32 50.9076 459.398 51.2129 459.553 51.4863C459.708 51.7507 459.931 51.9603 460.223 52.1152C460.514 52.2611 460.856 52.334 461.248 52.334C461.84 52.334 462.355 52.2155 462.793 51.9785C463.23 51.7415 463.568 51.4499 463.805 51.1035C464.051 50.7572 464.178 50.429 464.188 50.1191L465.227 51.7871C465.081 52.1608 464.88 52.5482 464.625 52.9492C464.379 53.3503 464.064 53.7285 463.682 54.084C463.299 54.4303 462.839 54.7174 462.301 54.9453C461.763 55.1641 461.125 55.2734 460.387 55.2734C459.448 55.2734 458.596 55.0866 457.83 54.7129C457.074 54.3301 456.472 53.806 456.025 53.1406C455.588 52.4661 455.369 51.7005 455.369 50.8438C455.369 50.069 455.515 49.3809 455.807 48.7793C456.098 48.1777 456.527 47.6719 457.092 47.2617C457.666 46.8424 458.382 46.528 459.238 46.3184C460.095 46.0996 461.089 45.9902 462.219 45.9902H464.502ZM475.139 34V55H471.188V34H475.139ZM489.303 43.2695V55H485.352V40.207H489.057L489.303 43.2695ZM488.756 47.084H487.662C487.662 46.054 487.785 45.1061 488.031 44.2402C488.286 43.3652 488.656 42.6087 489.139 41.9707C489.631 41.3236 490.237 40.8223 490.957 40.4668C491.677 40.1113 492.511 39.9336 493.459 39.9336C494.115 39.9336 494.717 40.0339 495.264 40.2344C495.811 40.4258 496.28 40.7311 496.672 41.1504C497.073 41.5605 497.383 42.0983 497.602 42.7637C497.82 43.4199 497.93 44.2083 497.93 45.1289V55H493.992V45.5664C493.992 44.8919 493.901 44.3724 493.719 44.0078C493.536 43.6432 493.277 43.388 492.939 43.2422C492.611 43.0964 492.215 43.0234 491.75 43.0234C491.24 43.0234 490.793 43.1283 490.41 43.3379C490.036 43.5475 489.727 43.8392 489.48 44.2129C489.234 44.5775 489.052 45.0059 488.934 45.498C488.815 45.9902 488.756 46.5189 488.756 47.084ZM497.561 46.6328L496.152 46.8105C496.152 45.8444 496.271 44.9466 496.508 44.1172C496.754 43.2878 497.114 42.5586 497.588 41.9297C498.071 41.3008 498.668 40.8132 499.379 40.4668C500.09 40.1113 500.91 39.9336 501.84 39.9336C502.551 39.9336 503.198 40.0384 503.781 40.248C504.365 40.4486 504.861 40.7721 505.271 41.2188C505.691 41.6562 506.01 42.2305 506.229 42.9414C506.456 43.6523 506.57 44.5228 506.57 45.5527V55H502.619V45.5527C502.619 44.8691 502.528 44.3496 502.346 43.9941C502.173 43.6296 501.917 43.3789 501.58 43.2422C501.252 43.0964 500.86 43.0234 500.404 43.0234C499.93 43.0234 499.516 43.1191 499.16 43.3105C498.805 43.4928 498.508 43.748 498.271 44.0762C498.035 44.4043 497.857 44.7871 497.738 45.2246C497.62 45.653 497.561 46.1224 497.561 46.6328ZM508.99 47.7539V47.4668C508.99 46.3822 509.145 45.3841 509.455 44.4727C509.765 43.5521 510.216 42.7546 510.809 42.0801C511.401 41.4056 512.13 40.8815 512.996 40.5078C513.862 40.125 514.855 39.9336 515.977 39.9336C517.098 39.9336 518.096 40.125 518.971 40.5078C519.846 40.8815 520.579 41.4056 521.172 42.0801C521.773 42.7546 522.229 43.5521 522.539 44.4727C522.849 45.3841 523.004 46.3822 523.004 47.4668V47.7539C523.004 48.8294 522.849 49.8275 522.539 50.748C522.229 51.6595 521.773 52.457 521.172 53.1406C520.579 53.8151 519.85 54.3392 518.984 54.7129C518.118 55.0866 517.125 55.2734 516.004 55.2734C514.883 55.2734 513.885 55.0866 513.01 54.7129C512.144 54.3392 511.41 53.8151 510.809 53.1406C510.216 52.457 509.765 51.6595 509.455 50.748C509.145 49.8275 508.99 48.8294 508.99 47.7539ZM512.928 47.4668V47.7539C512.928 48.3737 512.982 48.9525 513.092 49.4902C513.201 50.028 513.374 50.502 513.611 50.9121C513.857 51.3132 514.176 51.6276 514.568 51.8555C514.96 52.0833 515.439 52.1973 516.004 52.1973C516.551 52.1973 517.02 52.0833 517.412 51.8555C517.804 51.6276 518.118 51.3132 518.355 50.9121C518.592 50.502 518.766 50.028 518.875 49.4902C518.993 48.9525 519.053 48.3737 519.053 47.7539V47.4668C519.053 46.8652 518.993 46.3001 518.875 45.7715C518.766 45.2337 518.588 44.7598 518.342 44.3496C518.105 43.9303 517.79 43.6022 517.398 43.3652C517.007 43.1283 516.533 43.0098 515.977 43.0098C515.421 43.0098 514.947 43.1283 514.555 43.3652C514.172 43.6022 513.857 43.9303 513.611 44.3496C513.374 44.7598 513.201 45.2337 513.092 45.7715C512.982 46.3001 512.928 46.8652 512.928 47.4668ZM530.236 52.1289L533.518 40.207H537.633L532.643 55H530.154L530.236 52.1289ZM527.98 40.207L531.275 52.1426L531.344 55H528.842L523.852 40.207H527.98ZM546.014 55.2734C544.865 55.2734 543.835 55.0911 542.924 54.7266C542.012 54.3529 541.238 53.8379 540.6 53.1816C539.971 52.5254 539.488 51.7643 539.15 50.8984C538.813 50.0234 538.645 49.0938 538.645 48.1094V47.5625C538.645 46.4414 538.804 45.416 539.123 44.4863C539.442 43.5566 539.898 42.75 540.49 42.0664C541.092 41.3828 541.821 40.8587 542.678 40.4941C543.535 40.1204 544.501 39.9336 545.576 39.9336C546.624 39.9336 547.554 40.1068 548.365 40.4531C549.176 40.7995 549.855 41.2917 550.402 41.9297C550.958 42.5677 551.378 43.3333 551.66 44.2266C551.943 45.1107 552.084 46.0951 552.084 47.1797V48.8203H540.326V46.1953H548.215V45.8945C548.215 45.3477 548.115 44.86 547.914 44.4316C547.723 43.9941 547.431 43.6478 547.039 43.3926C546.647 43.1374 546.146 43.0098 545.535 43.0098C545.016 43.0098 544.569 43.1237 544.195 43.3516C543.822 43.5794 543.516 43.8984 543.279 44.3086C543.051 44.7188 542.878 45.2018 542.76 45.7578C542.65 46.3047 542.596 46.9062 542.596 47.5625V48.1094C542.596 48.7018 542.678 49.2487 542.842 49.75C543.015 50.2513 543.257 50.6842 543.566 51.0488C543.885 51.4134 544.268 51.696 544.715 51.8965C545.171 52.097 545.686 52.1973 546.26 52.1973C546.971 52.1973 547.632 52.0605 548.242 51.7871C548.862 51.5046 549.395 51.0807 549.842 50.5156L551.756 52.5938C551.446 53.0404 551.022 53.4688 550.484 53.8789C549.956 54.2891 549.318 54.6263 548.57 54.8906C547.823 55.1458 546.971 55.2734 546.014 55.2734ZM558.264 43.4336V55H554.326V40.207H558.031L558.264 43.4336ZM562.721 40.1113L562.652 43.7617C562.461 43.7344 562.229 43.7116 561.955 43.6934C561.691 43.666 561.449 43.6523 561.23 43.6523C560.674 43.6523 560.191 43.7253 559.781 43.8711C559.38 44.0078 559.043 44.2129 558.77 44.4863C558.505 44.7598 558.305 45.0924 558.168 45.4844C558.04 45.8763 557.967 46.3229 557.949 46.8242L557.156 46.5781C557.156 45.6211 557.252 44.7415 557.443 43.9395C557.635 43.1283 557.913 42.4219 558.277 41.8203C558.651 41.2188 559.107 40.7539 559.645 40.4258C560.182 40.0977 560.798 39.9336 561.49 39.9336C561.709 39.9336 561.932 39.9518 562.16 39.9883C562.388 40.0156 562.575 40.0566 562.721 40.1113Z" fill="#FFB000"/>
<path d="M729.887 56H725.553L725.58 52.8008H729.887C730.962 52.8008 731.869 52.5592 732.607 52.0762C733.346 51.584 733.902 50.8685 734.275 49.9297C734.658 48.9909 734.85 47.8561 734.85 46.5254V45.5547C734.85 44.5339 734.74 43.6361 734.521 42.8613C734.312 42.0866 733.997 41.4349 733.578 40.9062C733.159 40.3776 732.644 39.9811 732.033 39.7168C731.423 39.4434 730.721 39.3066 729.928 39.3066H725.471V36.0938H729.928C731.258 36.0938 732.475 36.3216 733.578 36.7773C734.69 37.224 735.652 37.8665 736.463 38.7051C737.274 39.5436 737.898 40.5462 738.336 41.7129C738.783 42.8704 739.006 44.1602 739.006 45.582V46.5254C739.006 47.9382 738.783 49.2279 738.336 50.3945C737.898 51.5612 737.274 52.5638 736.463 53.4023C735.661 54.2318 734.699 54.8743 733.578 55.3301C732.466 55.7767 731.236 56 729.887 56ZM727.877 36.0938V56H723.775V36.0938H727.877ZM745.896 41.207V56H741.945V41.207H745.896ZM741.699 37.3516C741.699 36.7773 741.9 36.3034 742.301 35.9297C742.702 35.556 743.24 35.3691 743.914 35.3691C744.579 35.3691 745.113 35.556 745.514 35.9297C745.924 36.3034 746.129 36.7773 746.129 37.3516C746.129 37.9258 745.924 38.3997 745.514 38.7734C745.113 39.1471 744.579 39.334 743.914 39.334C743.24 39.334 742.702 39.1471 742.301 38.7734C741.9 38.3997 741.699 37.9258 741.699 37.3516ZM758.516 41.207H762.084V55.5078C762.084 56.8568 761.783 58.0007 761.182 58.9395C760.589 59.8874 759.76 60.6029 758.693 61.0859C757.627 61.5781 756.387 61.8242 754.975 61.8242C754.355 61.8242 753.699 61.7422 753.006 61.5781C752.322 61.4141 751.666 61.1589 751.037 60.8125C750.417 60.4661 749.898 60.0286 749.479 59.5L751.215 57.1758C751.671 57.7044 752.199 58.1146 752.801 58.4062C753.402 58.707 754.068 58.8574 754.797 58.8574C755.508 58.8574 756.109 58.7253 756.602 58.4609C757.094 58.2057 757.472 57.8275 757.736 57.3262C758.001 56.834 758.133 56.237 758.133 55.5352V44.625L758.516 41.207ZM748.562 48.7812V48.4941C748.562 47.3639 748.699 46.3385 748.973 45.418C749.255 44.4883 749.652 43.6908 750.162 43.0254C750.682 42.36 751.311 41.8451 752.049 41.4805C752.787 41.1159 753.621 40.9336 754.551 40.9336C755.535 40.9336 756.36 41.1159 757.025 41.4805C757.691 41.8451 758.238 42.3646 758.666 43.0391C759.094 43.7044 759.427 44.4928 759.664 45.4043C759.91 46.3066 760.102 47.2956 760.238 48.3711V49C760.102 50.0299 759.896 50.987 759.623 51.8711C759.35 52.7552 758.99 53.5299 758.543 54.1953C758.096 54.8516 757.54 55.362 756.875 55.7266C756.219 56.0911 755.435 56.2734 754.523 56.2734C753.612 56.2734 752.787 56.0866 752.049 55.7129C751.32 55.3392 750.695 54.8151 750.176 54.1406C749.656 53.4661 749.255 52.6732 748.973 51.7617C748.699 50.8503 748.562 49.8568 748.562 48.7812ZM752.5 48.4941V48.7812C752.5 49.3919 752.559 49.9616 752.678 50.4902C752.796 51.0189 752.979 51.4883 753.225 51.8984C753.48 52.2995 753.794 52.6139 754.168 52.8418C754.551 53.0605 755.002 53.1699 755.521 53.1699C756.242 53.1699 756.829 53.0195 757.285 52.7188C757.741 52.4089 758.083 51.985 758.311 51.4473C758.538 50.9095 758.671 50.2897 758.707 49.5879V47.7969C758.689 47.2227 758.611 46.7077 758.475 46.252C758.338 45.7871 758.146 45.3906 757.9 45.0625C757.654 44.7344 757.335 44.4792 756.943 44.2969C756.551 44.1146 756.087 44.0234 755.549 44.0234C755.029 44.0234 754.578 44.1419 754.195 44.3789C753.822 44.6068 753.507 44.9212 753.252 45.3223C753.006 45.7233 752.819 46.1973 752.691 46.7441C752.564 47.2819 752.5 47.8652 752.5 48.4941ZM769.303 41.207V56H765.352V41.207H769.303ZM765.105 37.3516C765.105 36.7773 765.306 36.3034 765.707 35.9297C766.108 35.556 766.646 35.3691 767.32 35.3691C767.986 35.3691 768.519 35.556 768.92 35.9297C769.33 36.3034 769.535 36.7773 769.535 37.3516C769.535 37.9258 769.33 38.3997 768.92 38.7734C768.519 39.1471 767.986 39.334 767.32 39.334C766.646 39.334 766.108 39.1471 765.707 38.7734C765.306 38.3997 765.105 37.9258 765.105 37.3516ZM779.803 41.207V43.9961H771.189V41.207H779.803ZM773.322 37.5566H777.26V51.543C777.26 51.9714 777.314 52.2995 777.424 52.5273C777.542 52.7552 777.715 52.9147 777.943 53.0059C778.171 53.0879 778.458 53.1289 778.805 53.1289C779.051 53.1289 779.27 53.1198 779.461 53.1016C779.661 53.0742 779.83 53.0469 779.967 53.0195L779.98 55.918C779.643 56.0273 779.279 56.1139 778.887 56.1777C778.495 56.2415 778.062 56.2734 777.588 56.2734C776.722 56.2734 775.965 56.1322 775.318 55.8496C774.68 55.5579 774.188 55.0931 773.842 54.4551C773.495 53.8171 773.322 52.9785 773.322 51.9395V37.5566ZM790.029 52.6641V46.0742C790.029 45.6003 789.952 45.1947 789.797 44.8574C789.642 44.5111 789.4 44.2422 789.072 44.0508C788.753 43.8594 788.339 43.7637 787.828 43.7637C787.391 43.7637 787.012 43.8411 786.693 43.9961C786.374 44.1419 786.128 44.3561 785.955 44.6387C785.782 44.9121 785.695 45.2357 785.695 45.6094H781.758C781.758 44.9805 781.904 44.3835 782.195 43.8184C782.487 43.2533 782.911 42.7565 783.467 42.3281C784.023 41.8906 784.684 41.5488 785.449 41.3027C786.224 41.0566 787.09 40.9336 788.047 40.9336C789.195 40.9336 790.216 41.125 791.109 41.5078C792.003 41.8906 792.704 42.4648 793.215 43.2305C793.734 43.9961 793.994 44.9531 793.994 46.1016V52.4316C793.994 53.2428 794.044 53.9082 794.145 54.4277C794.245 54.9382 794.391 55.3848 794.582 55.7676V56H790.604C790.412 55.599 790.266 55.0977 790.166 54.4961C790.075 53.8854 790.029 53.2747 790.029 52.6641ZM790.549 46.9902L790.576 49.2188H788.375C787.855 49.2188 787.404 49.278 787.021 49.3965C786.639 49.515 786.324 49.6836 786.078 49.9023C785.832 50.112 785.65 50.3581 785.531 50.6406C785.422 50.9232 785.367 51.2331 785.367 51.5703C785.367 51.9076 785.445 52.2129 785.6 52.4863C785.755 52.7507 785.978 52.9603 786.27 53.1152C786.561 53.2611 786.903 53.334 787.295 53.334C787.887 53.334 788.402 53.2155 788.84 52.9785C789.277 52.7415 789.615 52.4499 789.852 52.1035C790.098 51.7572 790.225 51.429 790.234 51.1191L791.273 52.7871C791.128 53.1608 790.927 53.5482 790.672 53.9492C790.426 54.3503 790.111 54.7285 789.729 55.084C789.346 55.4303 788.885 55.7174 788.348 55.9453C787.81 56.1641 787.172 56.2734 786.434 56.2734C785.495 56.2734 784.643 56.0866 783.877 55.7129C783.12 55.3301 782.519 54.806 782.072 54.1406C781.635 53.4661 781.416 52.7005 781.416 51.8438C781.416 51.069 781.562 50.3809 781.854 49.7793C782.145 49.1777 782.574 48.6719 783.139 48.2617C783.713 47.8424 784.428 47.528 785.285 47.3184C786.142 47.0996 787.135 46.9902 788.266 46.9902H790.549ZM801.186 35V56H797.234V35H801.186ZM815.35 44.0508V61.6875H811.412V41.207H815.062L815.35 44.0508ZM824.715 48.4395V48.7266C824.715 49.8021 824.587 50.8001 824.332 51.7207C824.086 52.6413 823.721 53.4434 823.238 54.127C822.755 54.8014 822.154 55.3301 821.434 55.7129C820.723 56.0866 819.902 56.2734 818.973 56.2734C818.07 56.2734 817.286 56.0911 816.621 55.7266C815.956 55.362 815.395 54.8516 814.939 54.1953C814.493 53.5299 814.133 52.7598 813.859 51.8848C813.586 51.0098 813.376 50.071 813.23 49.0684V48.3164C813.376 47.2409 813.586 46.2565 813.859 45.3633C814.133 44.4609 814.493 43.6816 814.939 43.0254C815.395 42.36 815.951 41.8451 816.607 41.4805C817.273 41.1159 818.052 40.9336 818.945 40.9336C819.884 40.9336 820.709 41.1113 821.42 41.4668C822.14 41.8223 822.742 42.3327 823.225 42.998C823.717 43.6634 824.086 44.4564 824.332 45.377C824.587 46.2975 824.715 47.3184 824.715 48.4395ZM820.764 48.7266V48.4395C820.764 47.8105 820.709 47.2318 820.6 46.7031C820.499 46.1654 820.335 45.696 820.107 45.2949C819.889 44.8939 819.597 44.584 819.232 44.3652C818.877 44.1374 818.444 44.0234 817.934 44.0234C817.396 44.0234 816.936 44.11 816.553 44.2832C816.179 44.4564 815.874 44.707 815.637 45.0352C815.4 45.3633 815.222 45.7552 815.104 46.2109C814.985 46.6667 814.912 47.1816 814.885 47.7559V49.6562C814.93 50.3307 815.058 50.9368 815.268 51.4746C815.477 52.0033 815.801 52.4225 816.238 52.7324C816.676 53.0423 817.25 53.1973 817.961 53.1973C818.48 53.1973 818.918 53.0833 819.273 52.8555C819.629 52.6185 819.916 52.2949 820.135 51.8848C820.363 51.4746 820.522 51.0007 820.613 50.4629C820.714 49.9251 820.764 49.3464 820.764 48.7266ZM833.971 56.2734C832.822 56.2734 831.792 56.0911 830.881 55.7266C829.969 55.3529 829.195 54.8379 828.557 54.1816C827.928 53.5254 827.445 52.7643 827.107 51.8984C826.77 51.0234 826.602 50.0938 826.602 49.1094V48.5625C826.602 47.4414 826.761 46.416 827.08 45.4863C827.399 44.5566 827.855 43.75 828.447 43.0664C829.049 42.3828 829.778 41.8587 830.635 41.4941C831.492 41.1204 832.458 40.9336 833.533 40.9336C834.581 40.9336 835.511 41.1068 836.322 41.4531C837.133 41.7995 837.812 42.2917 838.359 42.9297C838.915 43.5677 839.335 44.3333 839.617 45.2266C839.9 46.1107 840.041 47.0951 840.041 48.1797V49.8203H828.283V47.1953H836.172V46.8945C836.172 46.3477 836.072 45.86 835.871 45.4316C835.68 44.9941 835.388 44.6478 834.996 44.3926C834.604 44.1374 834.103 44.0098 833.492 44.0098C832.973 44.0098 832.526 44.1237 832.152 44.3516C831.779 44.5794 831.473 44.8984 831.236 45.3086C831.008 45.7188 830.835 46.2018 830.717 46.7578C830.607 47.3047 830.553 47.9062 830.553 48.5625V49.1094C830.553 49.7018 830.635 50.2487 830.799 50.75C830.972 51.2513 831.214 51.6842 831.523 52.0488C831.842 52.4134 832.225 52.696 832.672 52.8965C833.128 53.097 833.643 53.1973 834.217 53.1973C834.928 53.1973 835.589 53.0605 836.199 52.7871C836.819 52.5046 837.352 52.0807 837.799 51.5156L839.713 53.5938C839.403 54.0404 838.979 54.4688 838.441 54.8789C837.913 55.2891 837.275 55.6263 836.527 55.8906C835.78 56.1458 834.928 56.2734 833.971 56.2734ZM846.221 44.4336V56H842.283V41.207H845.988L846.221 44.4336ZM850.678 41.1113L850.609 44.7617C850.418 44.7344 850.186 44.7116 849.912 44.6934C849.648 44.666 849.406 44.6523 849.188 44.6523C848.632 44.6523 848.148 44.7253 847.738 44.8711C847.337 45.0078 847 45.2129 846.727 45.4863C846.462 45.7598 846.262 46.0924 846.125 46.4844C845.997 46.8763 845.924 47.3229 845.906 47.8242L845.113 47.5781C845.113 46.6211 845.209 45.7415 845.4 44.9395C845.592 44.1283 845.87 43.4219 846.234 42.8203C846.608 42.2188 847.064 41.7539 847.602 41.4258C848.139 41.0977 848.755 40.9336 849.447 40.9336C849.666 40.9336 849.889 40.9518 850.117 40.9883C850.345 41.0156 850.532 41.0566 850.678 41.1113ZM857.828 56H853.863V39.8945C853.863 38.7734 854.082 37.8301 854.52 37.0645C854.966 36.2897 855.59 35.7064 856.393 35.3145C857.204 34.9134 858.165 34.7129 859.277 34.7129C859.642 34.7129 859.993 34.7402 860.33 34.7949C860.667 34.8405 860.995 34.8997 861.314 34.9727L861.273 37.9395C861.1 37.8939 860.918 37.862 860.727 37.8438C860.535 37.8255 860.312 37.8164 860.057 37.8164C859.583 37.8164 859.177 37.8984 858.84 38.0625C858.512 38.2174 858.261 38.4499 858.088 38.7598C857.915 39.0697 857.828 39.4479 857.828 39.8945V56ZM860.781 41.207V43.9961H851.662V41.207H860.781ZM862.217 48.7539V48.4668C862.217 47.3822 862.372 46.3841 862.682 45.4727C862.992 44.5521 863.443 43.7546 864.035 43.0801C864.628 42.4056 865.357 41.8815 866.223 41.5078C867.089 41.125 868.082 40.9336 869.203 40.9336C870.324 40.9336 871.322 41.125 872.197 41.5078C873.072 41.8815 873.806 42.4056 874.398 43.0801C875 43.7546 875.456 44.5521 875.766 45.4727C876.076 46.3841 876.23 47.3822 876.23 48.4668V48.7539C876.23 49.8294 876.076 50.8275 875.766 51.748C875.456 52.6595 875 53.457 874.398 54.1406C873.806 54.8151 873.077 55.3392 872.211 55.7129C871.345 56.0866 870.352 56.2734 869.23 56.2734C868.109 56.2734 867.111 56.0866 866.236 55.7129C865.37 55.3392 864.637 54.8151 864.035 54.1406C863.443 53.457 862.992 52.6595 862.682 51.748C862.372 50.8275 862.217 49.8294 862.217 48.7539ZM866.154 48.4668V48.7539C866.154 49.3737 866.209 49.9525 866.318 50.4902C866.428 51.028 866.601 51.502 866.838 51.9121C867.084 52.3132 867.403 52.6276 867.795 52.8555C868.187 53.0833 868.665 53.1973 869.23 53.1973C869.777 53.1973 870.247 53.0833 870.639 52.8555C871.031 52.6276 871.345 52.3132 871.582 51.9121C871.819 51.502 871.992 51.028 872.102 50.4902C872.22 49.9525 872.279 49.3737 872.279 48.7539V48.4668C872.279 47.8652 872.22 47.3001 872.102 46.7715C871.992 46.2337 871.814 45.7598 871.568 45.3496C871.331 44.9303 871.017 44.6022 870.625 44.3652C870.233 44.1283 869.759 44.0098 869.203 44.0098C868.647 44.0098 868.173 44.1283 867.781 44.3652C867.398 44.6022 867.084 44.9303 866.838 45.3496C866.601 45.7598 866.428 46.2337 866.318 46.7715C866.209 47.3001 866.154 47.8652 866.154 48.4668ZM882.588 44.4336V56H878.65V41.207H882.355L882.588 44.4336ZM887.045 41.1113L886.977 44.7617C886.785 44.7344 886.553 44.7116 886.279 44.6934C886.015 44.666 885.773 44.6523 885.555 44.6523C884.999 44.6523 884.516 44.7253 884.105 44.8711C883.704 45.0078 883.367 45.2129 883.094 45.4863C882.829 45.7598 882.629 46.0924 882.492 46.4844C882.365 46.8763 882.292 47.3229 882.273 47.8242L881.48 47.5781C881.48 46.6211 881.576 45.7415 881.768 44.9395C881.959 44.1283 882.237 43.4219 882.602 42.8203C882.975 42.2188 883.431 41.7539 883.969 41.4258C884.507 41.0977 885.122 40.9336 885.814 40.9336C886.033 40.9336 886.257 40.9518 886.484 40.9883C886.712 41.0156 886.899 41.0566 887.045 41.1113ZM892.842 44.2695V56H888.891V41.207H892.596L892.842 44.2695ZM892.295 48.084H891.201C891.201 47.054 891.324 46.1061 891.57 45.2402C891.826 44.3652 892.195 43.6087 892.678 42.9707C893.17 42.3236 893.776 41.8223 894.496 41.4668C895.216 41.1113 896.05 40.9336 896.998 40.9336C897.654 40.9336 898.256 41.0339 898.803 41.2344C899.35 41.4258 899.819 41.7311 900.211 42.1504C900.612 42.5605 900.922 43.0983 901.141 43.7637C901.359 44.4199 901.469 45.2083 901.469 46.1289V56H897.531V46.5664C897.531 45.8919 897.44 45.3724 897.258 45.0078C897.076 44.6432 896.816 44.388 896.479 44.2422C896.15 44.0964 895.754 44.0234 895.289 44.0234C894.779 44.0234 894.332 44.1283 893.949 44.3379C893.576 44.5475 893.266 44.8392 893.02 45.2129C892.773 45.5775 892.591 46.0059 892.473 46.498C892.354 46.9902 892.295 47.5189 892.295 48.084ZM901.1 47.6328L899.691 47.8105C899.691 46.8444 899.81 45.9466 900.047 45.1172C900.293 44.2878 900.653 43.5586 901.127 42.9297C901.61 42.3008 902.207 41.8132 902.918 41.4668C903.629 41.1113 904.449 40.9336 905.379 40.9336C906.09 40.9336 906.737 41.0384 907.32 41.248C907.904 41.4486 908.4 41.7721 908.811 42.2188C909.23 42.6562 909.549 43.2305 909.768 43.9414C909.995 44.6523 910.109 45.5228 910.109 46.5527V56H906.158V46.5527C906.158 45.8691 906.067 45.3496 905.885 44.9941C905.712 44.6296 905.456 44.3789 905.119 44.2422C904.791 44.0964 904.399 44.0234 903.943 44.0234C903.469 44.0234 903.055 44.1191 902.699 44.3105C902.344 44.4928 902.048 44.748 901.811 45.0762C901.574 45.4043 901.396 45.7871 901.277 46.2246C901.159 46.653 901.1 47.1224 901.1 47.6328ZM919.967 56.2734C918.818 56.2734 917.788 56.0911 916.877 55.7266C915.965 55.3529 915.191 54.8379 914.553 54.1816C913.924 53.5254 913.441 52.7643 913.104 51.8984C912.766 51.0234 912.598 50.0938 912.598 49.1094V48.5625C912.598 47.4414 912.757 46.416 913.076 45.4863C913.395 44.5566 913.851 43.75 914.443 43.0664C915.045 42.3828 915.774 41.8587 916.631 41.4941C917.488 41.1204 918.454 40.9336 919.529 40.9336C920.577 40.9336 921.507 41.1068 922.318 41.4531C923.13 41.7995 923.809 42.2917 924.355 42.9297C924.911 43.5677 925.331 44.3333 925.613 45.2266C925.896 46.1107 926.037 47.0951 926.037 48.1797V49.8203H914.279V47.1953H922.168V46.8945C922.168 46.3477 922.068 45.86 921.867 45.4316C921.676 44.9941 921.384 44.6478 920.992 44.3926C920.6 44.1374 920.099 44.0098 919.488 44.0098C918.969 44.0098 918.522 44.1237 918.148 44.3516C917.775 44.5794 917.469 44.8984 917.232 45.3086C917.005 45.7188 916.831 46.2018 916.713 46.7578C916.604 47.3047 916.549 47.9062 916.549 48.5625V49.1094C916.549 49.7018 916.631 50.2487 916.795 50.75C916.968 51.2513 917.21 51.6842 917.52 52.0488C917.839 52.4134 918.221 52.696 918.668 52.8965C919.124 53.097 919.639 53.1973 920.213 53.1973C920.924 53.1973 921.585 53.0605 922.195 52.7871C922.815 52.5046 923.348 52.0807 923.795 51.5156L925.709 53.5938C925.399 54.0404 924.975 54.4688 924.438 54.8789C923.909 55.2891 923.271 55.6263 922.523 55.8906C921.776 56.1458 920.924 56.2734 919.967 56.2734ZM932.217 44.4336V56H928.279V41.207H931.984L932.217 44.4336ZM936.674 41.1113L936.605 44.7617C936.414 44.7344 936.182 44.7116 935.908 44.6934C935.644 44.666 935.402 44.6523 935.184 44.6523C934.628 44.6523 934.145 44.7253 933.734 44.8711C933.333 45.0078 932.996 45.2129 932.723 45.4863C932.458 45.7598 932.258 46.0924 932.121 46.4844C931.993 46.8763 931.921 47.3229 931.902 47.8242L931.109 47.5781C931.109 46.6211 931.205 45.7415 931.396 44.9395C931.588 44.1283 931.866 43.4219 932.23 42.8203C932.604 42.2188 933.06 41.7539 933.598 41.4258C934.135 41.0977 934.751 40.9336 935.443 40.9336C935.662 40.9336 935.885 40.9518 936.113 40.9883C936.341 41.0156 936.528 41.0566 936.674 41.1113Z" fill="#FFB000"/>
<path d="M443 150H517V192C517 197.523 512.523 202 507 202H453C447.477 202 443 197.523 443 192V150Z" fill="#FFB000"/>
<path d="M480 105L517.239 152.25H442.761L480 105Z" fill="#FFB000"/>
</svg>
